/* XPM */
static char * desktop_xpm[] = {
"16 16 19 1",
" 	c #F5F8FD",
".	c #F3F6FB",
"+	c #FCFDFF",
"@	c #FBFCFF",
"#	c #FEFFFF",
"$	c #FDFEFF",
"%	c #F5F6FB",
"&	c #FCFFFF",
"*	c #2A2A2A",
"=	c #F6F9FE",
"-	c #F8F9FE",
";	c #F2F5FA",
">	c #F0F1F6",
",	c #FBFEFF",
"'	c #FAFDFF",
")	c #F2F3F8",
"!	c #FAFBFF",
"~	c #F9FCFF",
"{	c #EEF1F6",
" .++++++++@##$#%",
"&**************#",
"=**************-",
";**************>",
",**************#",
",**************+",
"'**************+",
"'**************#",
"'**************)",
"'**************#",
"'**************!",
"'**************+",
"'**************#",
"'*++++++++++$@*+",
",**************~",
";,'''''''';&=&&{"};
