/* XPM */
static char * pirate_xpm[] = {
"47 50 191 2",
"  	c None",
". 	c #F5F5F5",
"+ 	c #FAFAFA",
"@ 	c #FCFCFC",
"# 	c #FDFDFD",
"$ 	c #FFFFFF",
"% 	c #FBFBFB",
"& 	c #FDE6E6",
"* 	c #F79595",
"= 	c #F35D5D",
"- 	c #EF3535",
"; 	c #EE2424",
"> 	c #F03737",
", 	c #F35E5E",
"' 	c #F79999",
") 	c #FDE9E9",
"! 	c #FDE3E3",
"~ 	c #F36767",
"{ 	c #ED1818",
"] 	c #ED1515",
"^ 	c #ED1A1A",
"/ 	c #F46D6D",
"( 	c #F8AAAA",
"_ 	c #EE2020",
": 	c #EE2121",
"< 	c #F9ADAD",
"[ 	c #F79292",
"} 	c #F68D8D",
"| 	c #F79D9D",
"1 	c #F8A2A2",
"2 	c #EFEFEF",
"3 	c #FBD1D1",
"4 	c #ED1B1B",
"5 	c #FCD5D5",
"6 	c #FFFEFE",
"7 	c #F14848",
"8 	c #F14B4B",
"9 	c #FAC0C0",
"0 	c #FAC3C3",
"a 	c #F6F6F6",
"b 	c #F68C8C",
"c 	c #FDE2E2",
"d 	c #F36969",
"e 	c #EE2626",
"f 	c #F68F8F",
"g 	c #F68E8E",
"h 	c #EE2727",
"i 	c #FDE7E7",
"j 	c #FDEAEA",
"k 	c #FCD3D3",
"l 	c #FDE8E8",
"m 	c #FCDADA",
"n 	c #FFF9F9",
"o 	c #ED1919",
"p 	c #EE1C1C",
"q 	c #F79898",
"r 	c #FEEEEE",
"s 	c #F79797",
"t 	c #F2F2F2",
"u 	c #F14F4F",
"v 	c #F25050",
"w 	c #F1F1F1",
"x 	c #F9ACAC",
"y 	c #F14D4D",
"z 	c #F8F8F8",
"A 	c #EF3232",
"B 	c #EF3333",
"C 	c #EAEAEA",
"D 	c #F68A8A",
"E 	c #E8E8E8",
"F 	c #DFDFDF",
"G 	c #DEDEDE",
"H 	c #FEF6F6",
"I 	c #FAB8B8",
"J 	c #F46A6A",
"K 	c #EE1F1F",
"L 	c #F25B5B",
"M 	c #F8A9A9",
"N 	c #FEF1F1",
"O 	c #F7F7F7",
"P 	c #E7E7E7",
"Q 	c #EDEDED",
"R 	c #FFFDFD",
"S 	c #F14949",
"T 	c #F14646",
"U 	c #F9F9F9",
"V 	c #F4F4F4",
"W 	c #E9E9E9",
"X 	c #F3EDED",
"Y 	c #F89F9F",
"Z 	c #F8A0A0",
"` 	c #F5F4F4",
" .	c #EDE5E5",
"..	c #F8A6A6",
"+.	c #F47474",
"@.	c #FFFAFA",
"#.	c #EE2525",
"$.	c #F25757",
"%.	c #FEF8F8",
"&.	c #F14545",
"*.	c #F9B3B3",
"=.	c #F68585",
"-.	c #F68989",
";.	c #FFFBFB",
">.	c #FCDCDC",
",.	c #F57979",
"'.	c #ED1616",
").	c #FBCFCF",
"!.	c #F14343",
"~.	c #F9B4B4",
"{.	c #FEF0F0",
"].	c #F57F7F",
"^.	c #FFFCFC",
"/.	c #F03D3D",
"(.	c #FCDDDD",
"_.	c #FDEBEB",
":.	c #F47272",
"<.	c #EF2E2E",
"[.	c #F03C3C",
"}.	c #FEF7F7",
"|.	c #F8A1A1",
"1.	c #EF3131",
"2.	c #F57777",
"3.	c #FEF2F2",
"4.	c #FBCCCC",
"5.	c #F47373",
"6.	c #EE2222",
"7.	c #EF2A2A",
"8.	c #F68888",
"9.	c #F58181",
"0.	c #ECECEC",
"a.	c #F25353",
"b.	c #ED1717",
"c.	c #FEF3F3",
"d.	c #F8A8A8",
"e.	c #F25959",
"f.	c #F25A5A",
"g.	c #F9AFAF",
"h.	c #EBEBEB",
"i.	c #FDE5E5",
"j.	c #F79494",
"k.	c #EE1D1D",
"l.	c #F35F5F",
"m.	c #F25252",
"n.	c #F79A9A",
"o.	c #BDBDBD",
"p.	c #DDDDDD",
"q.	c #E0E0E0",
"r.	c #FCD7D7",
"s.	c #F14C4C",
"t.	c #F25454",
"u.	c #FCDEDE",
"v.	c #F4EFEF",
"w.	c #DCDCDC",
"x.	c #BEBEBE",
"y.	c #FDFBFB",
"z.	c #EE2828",
"A.	c #F46C6C",
"B.	c #FCF9F9",
"C.	c #EBD3D3",
"D.	c #E3E3E3",
"E.	c #F3F3F3",
"F.	c #FABEBE",
"G.	c #F36464",
"H.	c #F9B7B7",
"I.	c #FAC4C4",
"J.	c #FCD8D8",
"K.	c #F58383",
"L.	c #F36565",
"M.	c #FCD4D4",
"N.	c #FCDBDB",
"O.	c #FBD0D0",
"P.	c #D5D5D5",
"Q.	c #D8D8D8",
"R.	c #FBC7C7",
"S.	c #EF3434",
"T.	c #F36060",
"U.	c #FBC6C6",
"V.	c #F03F3F",
"W.	c #FAC1C1",
"X.	c #C8C8C8",
"Y.	c #CECECE",
"Z.	c #F9B5B5",
"`.	c #F36262",
" +	c #D1D1D1",
".+	c #D6D6D6",
"++	c #F57A7A",
"@+	c #FEF5F5",
"#+	c #E2E2E2",
"$+	c #F46E6E",
"%+	c #F0F0F0",
"                                                                                              ",
"                                                                                              ",
"                                    . + @ # # @ + .                                           ",
"                                @ $ $ $ $ $ $ $ $ $ $ @                                       ",
"                            % $ $ & * = - ; ; > , ' ) $ $ %                                   ",
"                          # $ ! ~ { ] ] ] ] ] ] ] ] ^ / & $ #                                 ",
"                        $ $ ( _ ] ] ] ] ] ] ] ] ] ] ] ] : < $ $                               ",
"                      # $ [ ] ] ] ] ] ] ] ] ] ] ] ] ] ] ] ] } $ #                             ",
"                    @ $ | ] ] ] ] ] ] ] ] ] ] ] ] ] ] ] ] ] ] 1 $ %                           ",
"                  2 $ 3 ^ ] ] ] ] ] ] ] ] ] ] ] ] ] ] ] ] ] ] 4 5 $ 2                         ",
"                  # 6 7 ] ] ] ] ] ] ] ] ] ] ] ] ] ] ] ] ] ] ] ] 8 $ #                         ",
"                  $ 9 ] ] ] ] ] ] ] ] ] ] ] ] ] ] ] ] ] ] ] ] ] ] 0 $                         ",
"                a $ ~ ] ] ] ^ b c c b ^ ] ] ] ] ^ b c c b ^ ] ] ] d $ a                       ",
"                @ 6 e ] ] ] f $ $ $ $ g ] ] ] ] f $ $ $ $ g ] ] ] h 6 @                       ",
"                $ & ] ] ] ] i $ $ $ $ & ] ] ] ] i $ $ $ $ & ] ] ] ] j $                       ",
"                $ k ] ] ] ] ) $ $ $ $ l ] ] ] ] ) $ $ $ $ l ] ] ] ] 5 $                       ",
"                $ m ] ] ] ] * $ $ $ $ * ] ] ] ] * $ $ $ $ * ] ] ] ] m $                       ",
"                % n o ] ] ] p q r r s p ] ] ] ] p q r r s p ] ] ] ^ n %                       ",
"                t $ u ] ] ] ] ] ] ] ] ] ] ] ] ] ] ] ] ] ] ] ] ] ] v $ w                       ",
"                  $ x ] ] ] ] ] ] ] ] ] ] ] ] ] ] ] ] ] ] ] ] ] ] < $                         ",
"                  + 6 8 ] ] ] ] ] ] ] ] ] ] ] ] ] ] ] ] ] ] ] ] y 6 z                         ",
"                    $ l A ] ] ] ] ] ] ] ] ] ] ] ] ] ] ] ] ] ] B l $                           ",
"                    C $ D ] ] ] ] ] ] ] ] ] ] ] ] ] ] ] ] ] ] D $ E                           ",
"                    F $ D ] ] ] ] ] ] ] ] ] ] ] ] ] ] ] ] ] ] D $ G                           ",
"                      $ H I J K ] ] ] ] ] ] ] ] ] ] ] ] 4 L M N $                             ",
"              O z P   Q $ $ R S ] ] ] ] ] ] ] ] ] ] ] ] T R $ $ 2 F a U V                     ",
"            $ $ $ $ $ W X $ Y ] ] ] ] ] ] ] ] ] ] ] ] ] ] Z $ `  .$ $ $ $ #                   ",
"          $ $ ..B +.@.$ $ j #.] ] ] $.$ / ] ] / $ $.] ] ] #.j $ $ %.d &.*.$ $                 ",
"        # $ =.] ] ] -.$ $ ;.| h ] 4 >.$ / ] ] / $ >.4 ] h | ;.$ 6 ,.] ] '.* $ #               ",
"        $ ).'.] ] ] ] !.~.R $ {.].D $ $ / ] ] / $ $ D ].{.$ ^.x /.] ] ] ] { (.$               ",
"        $ _.:.<.] ] ] ] ] [.M n $ $ $ $ $ $ $ $ $ $ $ $ }.|.- ] ] ] ] ] 1.2.3.$               ",
"        . $ $ 6 4.5.6.] ] ] ] 7.8.i $ $ $ $ $ $ $ $ c 9.e ] ] ] ] e ,.3 $ $ $ w               ",
"            0.@ $ $ H ( a.b.] ] ] ^ , x c.$ $ {.d.e.{ ] ] ] o f.g.%.$ $ % h.                  ",
"                  0.$ $ $ i.j.y { ] ] ] k.l.f.4 ] ] ] ^ m.n.j $ $ $ C o.                      ",
"                  p.q.a $ $ $ $ r.s.] ] ] ] ] ] ] ] t.u.$ $ $ $ v.q.W w.                      ",
"                x.2 y.$ $ r ' S b.] ] ] z.:.A.#.] ] ] { u Z N $ $ B.C.D.                      ",
"          C E.@ $ $ ^.F.G.4 ] ] ] b.L F.^.$ $ @.H.m.'.] ] ] k.J I.6 $ $ + t E                 ",
"        % $ $ $ J.K.<.] ] ] ] '.L.>.$ $ $ 2 2 $ $ $ M.f.] ] ] ] ] B D (.$ $ $ U               ",
"        $ N.= 1.] ] ] ] ] ] t.O.$ $ U P.        Q.U $ $ R.S ] ] ] ] ] ] S.T.i $               ",
"        $ U.] ] ] ] ] ] V.W.$ $ z X.                Y.U $ $ Z.- ] ] ] ] ] '.>.$               ",
"        # $ `.] ] ] e Y ^.$ +  +                        .+% $ n f K ] ] ] ++$ @               ",
"        D.$ @+m.K ].r $ # p.                                #+$ $ i.$+^ d ;.$                 ",
"          %+$ $ n $ $ 2                                         t $ $ n $ $ W                 ",
"            E # $ .                                                 z $ @ F                   ",
"                                                                                              ",
"                                                                                              ",
"                                                                                              ",
"                                                                                              ",
"                                                                                              ",
"                                                                                              "};
