/* XPM */
static char * cross_xpm[] = {
"32 32 67 1",
" 	c None",
".	c #FDFDFD",
"+	c #FFFFFF",
"@	c #FAFAFA",
"#	c #F6F6F6",
"$	c #4F4F4F",
"%	c #4D4D4D",
"&	c #FCFCFC",
"*	c #4E4E4E",
"=	c #FBFBFB",
"-	c #5F5F5F",
";	c #707070",
">	c #F3F3F3",
",	c #757575",
"'	c #4C4C4C",
")	c #F2F2F2",
"!	c #848484",
"~	c #4B4B4B",
"{	c #8C8C8C",
"]	c #929292",
"^	c #4A4A4A",
"/	c #A0A0A0",
"(	c #F4F4F4",
"_	c #A6A6A6",
":	c #AEAEAE",
"<	c #F5F5F5",
"[	c #BABABA",
"}	c #F7F7F7",
"|	c #505050",
"1	c #616161",
"2	c #747474",
"3	c #797979",
"4	c #888888",
"5	c #909090",
"6	c #969696",
"7	c #A2A2A2",
"8	c #A9A9A9",
"9	c #AFAFAF",
"0	c #BBBBBB",
"a	c #EBEBEB",
"b	c #515151",
"c	c #B0B0B0",
"d	c #9E9E9E",
"e	c #979797",
"f	c #8F8F8F",
"g	c #828282",
"h	c #717171",
"i	c #555555",
"j	c #5D5D5D",
"k	c #EFEFEF",
"l	c #E3E3E3",
"m	c #F9F9F9",
"n	c #F8F8F8",
"o	c #F1F1F1",
"p	c #939393",
"q	c #FEFEFE",
"r	c #E8E8E8",
"s	c #ADADAD",
"t	c #9A9A9A",
"u	c #949494",
"v	c #8D8D8D",
"w	c #7F7F7F",
"x	c #787878",
"y	c #6E6E6E",
"z	c #E9E9E9",
"A	c #DFDFDF",
"B	c #E7E7E7",
"               .+               ",
"              +@#               ",
"              +$%&              ",
"              +*%=              ",
"              +*%=              ",
"              +-%=              ",
"              +;%>              ",
"              +,')              ",
"              +!~)              ",
"              +{~>              ",
"              +]^>              ",
"              +/^(              ",
"              +_^(              ",
"              +:^<              ",
" ++++++++++++++['++++++++++++++<",
".}$||1234567890ab6c8defg322hijk+",
".>%%%%%'~'~~~'*i %%''~~'%%%%%*l+",
" lmmnmooooo))>+p^q(>)))oooomn#r ",
"              +s^<              ",
"              +_^(              ",
"              +t^(              ",
"              +u~>              ",
"              +v^>              ",
"              +w'>              ",
"              +x%)              ",
"              +;%)              ",
"              +;%)              ",
"              +y%@              ",
"              +b%m              ",
"              +i$#              ",
"              +zAB              ",
"              a++               "};
