/* XPM */
static char * folder_16x16_xpm[] = {
"32 32 16 1",
" 	c None",
".	c #2A631A",
"+	c #3B702B",
"@	c #366A28",
"#	c #407431",
"$	c #2E651F",
"%	c #427134",
"&	c #285F19",
"*	c #387928",
"=	c #33A813",
"-	c #225015",
";	c #397329",
">	c #37B415",
",	c #3BC016",
"'	c #34AD13",
")	c #32771F",
"                                ",
"                                ",
"                                ",
"  ............+                 ",
"  ............@#                ",
"  ............$%%%%%%%%%%%%%%%  ",
"  ............................  ",
"  ............................  ",
"  .........&*================== ",
"  ---------;>================== ",
" ,,,,,,,,,,,'================== ",
" ============================== ",
" ============================== ",
" ============================== ",
" ============================== ",
" ============================== ",
" ============================== ",
" ============================== ",
" ============================== ",
" ============================== ",
" ============================== ",
" ============================== ",
" ============================== ",
" ============================== ",
" ============================== ",
" ============================== ",
" ============================== ",
" ============================== ",
" )))))))))))))))))))))))))))))) ",
"                                ",
"                                ",
"                                "};
