/* XPM */
static char * system_help_xpm[] = {
"40 40 463 2",
"  	c None",
". 	c #E0E5E7",
"+ 	c #E0E5E6",
"@ 	c #DEE4E7",
"# 	c #DFE4E6",
"$ 	c #E0E4E6",
"% 	c #DC8995",
"& 	c #DC5766",
"* 	c #DED9DC",
"= 	c #DEE3E6",
"- 	c #DD5768",
"; 	c #DB8995",
"> 	c #DB5F6E",
", 	c #DB2B40",
"' 	c #DB2A3F",
") 	c #DC7B88",
"! 	c #DDE3E5",
"~ 	c #DA495A",
"{ 	c #DA293E",
"] 	c #DA2C40",
"^ 	c #DCC0C5",
"/ 	c #DDE2E4",
"( 	c #DDC3C8",
"_ 	c #DA2C41",
": 	c #DA4657",
"< 	c #A32734",
"[ 	c #AB2233",
"} 	c #D2283C",
"| 	c #D9283D",
"1 	c #DA5464",
"2 	c #DCE0E2",
"3 	c #DCE1E3",
"4 	c #B92234",
"5 	c #A42735",
"6 	c #AF3140",
"7 	c #A13638",
"8 	c #851C26",
"9 	c #BA2839",
"0 	c #D2283B",
"a 	c #D9283C",
"b 	c #DA9DA6",
"c 	c #DBE0E3",
"d 	c #881D27",
"e 	c #A33537",
"f 	c #B0303E",
"g 	c #D95D6D",
"h 	c #CC2839",
"i 	c #913434",
"j 	c #9D2631",
"k 	c #B82738",
"l 	c #BB2738",
"m 	c #D1273A",
"n 	c #D8273B",
"o 	c #D9374A",
"p 	c #DAD4D8",
"q 	c #DAE0E2",
"r 	c #DAD6D9",
"s 	c #D83A4C",
"t 	c #AC2934",
"u 	c #933334",
"v 	c #CA2638",
"w 	c #D95A6A",
"x 	c #D87682",
"y 	c #D7263A",
"z 	c #D1685A",
"A 	c #C45E53",
"B 	c #B72637",
"C 	c #B92637",
"D 	c #BA2636",
"E 	c #BB2537",
"F 	c #D02639",
"G 	c #D77683",
"H 	c #D9DFE1",
"I 	c #D26758",
"J 	c #D36056",
"K 	c #D6747F",
"L 	c #D73C4F",
"M 	c #D53541",
"N 	c #CD8A69",
"O 	c #B82536",
"P 	c #B92536",
"Q 	c #B92436",
"R 	c #BB2536",
"S 	c #CF2538",
"T 	c #D62539",
"U 	c #D6273C",
"V 	c #D9BDC2",
"W 	c #D9DEE1",
"X 	c #D6283B",
"Y 	c #D08E6B",
"Z 	c #D5303E",
"` 	c #D63D50",
" .	c #D8737F",
"..	c #D62438",
"+.	c #D16C5B",
"@.	c #C14E4B",
"#.	c #B82436",
"$.	c #B92435",
"%.	c #B92335",
"&.	c #BA2334",
"*.	c #BB2435",
"=.	c #BD2335",
"-.	c #CF2A3D",
";.	c #D75A69",
">.	c #D85B69",
",.	c #D52A3E",
"'.	c #D35751",
").	c #D26257",
"!.	c #D7737E",
"~.	c #D7CDD1",
"{.	c #D67C85",
"].	c #CD8D6B",
"^.	c #B82434",
"/.	c #B92334",
"(.	c #BA2434",
"_.	c #BB2334",
":.	c #BD2D3D",
"<.	c #D53143",
"[.	c #D52437",
"}.	c #D52838",
"|.	c #CF8E6C",
"1.	c #D66F7A",
"2.	c #D7C8CE",
"3.	c #D6DCDF",
"4.	c #D3CCC0",
"5.	c #C7A78F",
"6.	c #B7505C",
"7.	c #B72333",
"8.	c #B82334",
"9.	c #B92333",
"0.	c #BA2233",
"a.	c #BC2535",
"b.	c #D42639",
"c.	c #D42336",
"d.	c #D45867",
"e.	c #D1AE93",
"f.	c #D4CFC6",
"g.	c #D6DCE0",
"h.	c #D5DBDE",
"i.	c #D0BBA2",
"j.	c #BEB6AC",
"k.	c #B8BEC0",
"l.	c #B99198",
"m.	c #B93B49",
"n.	c #B92232",
"o.	c #BA2133",
"p.	c #BB2132",
"q.	c #C55765",
"r.	c #D45D6A",
"s.	c #D42235",
"t.	c #D44050",
"u.	c #D5A6AD",
"v.	c #D3C9BC",
"w.	c #D2C0AB",
"x.	c #D5DBDD",
"y.	c #CDAD89",
"z.	c #BABCB9",
"A.	c #B9BEC0",
"B.	c #B9BFC0",
"C.	c #BABFC0",
"D.	c #BA8089",
"E.	c #BB2D3D",
"F.	c #BC2233",
"G.	c #D32336",
"H.	c #D32E40",
"I.	c #D4848E",
"J.	c #D5D7D9",
"K.	c #D4D3CE",
"L.	c #D0B493",
"M.	c #D5DADD",
"N.	c #D4DADD",
"O.	c #CBAA86",
"P.	c #B8BDC0",
"Q.	c #B9BFC2",
"R.	c #BABFC3",
"S.	c #BBC0C3",
"T.	c #BCB6B9",
"U.	c #BF747D",
"V.	c #D37E8A",
"W.	c #D4CDD1",
"X.	c #D4D9DB",
"Y.	c #CFAF8C",
"Z.	c #D4D9DD",
"`.	c #D2D8DA",
" +	c #D3D9DC",
".+	c #CAA985",
"++	c #B8BDBF",
"@+	c #B8BFC1",
"#+	c #B9BEC2",
"$+	c #BABFC2",
"%+	c #BCC2C4",
"&+	c #BDC3C6",
"*+	c #D3DADB",
"=+	c #CFAE8A",
"-+	c #D2D8DB",
";+	c #CDD3D8",
">+	c #D2D7D9",
",+	c #CBA884",
"'+	c #B8BEC1",
")+	c #B9BEC1",
"!+	c #BBC1C4",
"~+	c #BDC3C5",
"{+	c #CEAC87",
"]+	c #CDD3D6",
"^+	c #C8CFD4",
"/+	c #D1D8DB",
"(+	c #CCAA84",
"_+	c #B7BEC1",
":+	c #BAC1C4",
"<+	c #BBB6BA",
"[+	c #BE737B",
"}+	c #D07D86",
"|+	c #D1CBCF",
"1+	c #CEAD88",
"2+	c #C8D0D2",
"3+	c #C4C9CF",
"4+	c #D1D7DA",
"5+	c #CDAB85",
"6+	c #BAC0C3",
"7+	c #BBBDC2",
"8+	c #BB7F87",
"9+	c #BA2C39",
"0+	c #BB1F2E",
"a+	c #CF2031",
"b+	c #CF2A3B",
"c+	c #D0818A",
"d+	c #D1D3D6",
"e+	c #D1D4D4",
"f+	c #CFAF8D",
"g+	c #C2C9CB",
"h+	c #D0D6D9",
"i+	c #CEB293",
"j+	c #BCBAB6",
"k+	c #B93644",
"l+	c #BA1D2C",
"m+	c #B91D2C",
"n+	c #BB1C2C",
"o+	c #C1525E",
"p+	c #CE5762",
"q+	c #CE1D2E",
"r+	c #CE3A4A",
"s+	c #CFA2A9",
"t+	c #D0CAC3",
"u+	c #CFB79C",
"v+	c #CFD5D8",
"w+	c #C5CACE",
"x+	c #CFBFAE",
"y+	c #C5A797",
"z+	c #B84B57",
"A+	c #B91C2B",
"B+	c #BA1C2B",
"C+	c #BB1B2B",
"D+	c #BC1B2B",
"E+	c #BD1E2E",
"F+	c #CC1F30",
"G+	c #CE1C2D",
"H+	c #CE515E",
"I+	c #CEAF9B",
"J+	c #CFC3B5",
"K+	c #C4CACF",
"L+	c #B9B7BC",
"M+	c #CD7A7B",
"N+	c #CA7A60",
"O+	c #B81B2A",
"P+	c #B91B2A",
"Q+	c #BA1A2B",
"R+	c #BB1A2A",
"S+	c #BC1A2A",
"T+	c #BD1B2A",
"U+	c #C02434",
"V+	c #C72836",
"W+	c #C81A2B",
"X+	c #CC1B2C",
"Y+	c #CD1B2C",
"Z+	c #CE8264",
"`+	c #CD6C71",
" @	c #BAB4BA",
".@	c #B7858E",
"+@	c #C82635",
"@@	c #CD8465",
"#@	c #BB2D33",
"$@	c #B81B29",
"%@	c #B91A2A",
"&@	c #BA1A29",
"*@	c #BB1A29",
"=@	c #BC1B29",
"-@	c #BD1A29",
";@	c #BF202E",
">@	c #C4505B",
",@	c #C7505D",
"'@	c #C61F2E",
")@	c #C61A2A",
"!@	c #C71A2A",
"~@	c #C91B2A",
"{@	c #CB1B2B",
"]@	c #CC1B2B",
"^@	c #CD3238",
"/@	c #CE7B60",
"(@	c #C72737",
"_@	c #B6828A",
":@	c #B66974",
"<@	c #CD4A45",
"[@	c #C66653",
"}@	c #B9192A",
"|@	c #BA1929",
"1@	c #BC1A29",
"2@	c #BD1929",
"3@	c #BE1929",
"4@	c #BF1929",
"5@	c #BF1C2B",
"6@	c #C2A8AE",
"7@	c #C1C7CC",
"8@	c #C3C9CC",
"9@	c #C4CBCF",
"0@	c #C6ABB2",
"a@	c #C61C2C",
"b@	c #C6192A",
"c@	c #C7192A",
"d@	c #C91A2A",
"e@	c #CA1A2A",
"f@	c #CA1A2B",
"g@	c #CC1A2B",
"h@	c #CE7059",
"i@	c #CC4140",
"j@	c #B5636E",
"k@	c #B5858C",
"l@	c #C13744",
"m@	c #CC8666",
"n@	c #BC2D33",
"o@	c #BA1927",
"p@	c #BB1927",
"q@	c #BB1928",
"r@	c #BC1827",
"s@	c #BD1827",
"t@	c #BE1827",
"u@	c #C0646D",
"v@	c #C2C7CB",
"w@	c #C3C8CC",
"x@	c #C2C8CC",
"y@	c #C4CACE",
"z@	c #C5CBCE",
"A@	c #C6CBCF",
"B@	c #C56670",
"C@	c #C61828",
"D@	c #C81928",
"E@	c #C91929",
"F@	c #CA1929",
"G@	c #CB1929",
"H@	c #CB3438",
"I@	c #CD8062",
"J@	c #C03844",
"K@	c #B4828B",
"L@	c #AB828B",
"M@	c #BA3A3D",
"N@	c #913132",
"O@	c #9D1825",
"P@	c #BA1827",
"Q@	c #BB1726",
"R@	c #BC1726",
"S@	c #BD1726",
"T@	c #BE1726",
"U@	c #BF2835",
"V@	c #C1BDC1",
"W@	c #C2C8CB",
"X@	c #C1C8CB",
"Y@	c #C3CACD",
"Z@	c #C4CBCD",
"`@	c #C5CCCF",
" #	c #C6C2C6",
".#	c #C72A38",
"+#	c #C81828",
"@#	c #C91828",
"##	c #CA1828",
"$#	c #A41926",
"%#	c #913232",
"&#	c #BE3239",
"*#	c #AF8087",
"=#	c #954F59",
"-#	c #9C3736",
";#	c #851824",
">#	c #BA1625",
",#	c #BB1625",
"'#	c #BC1625",
")#	c #BD1625",
"!#	c #C0858D",
"~#	c #C1C7CB",
"{#	c #C0C7CB",
"]#	c #C2C9CD",
"^#	c #C5CCD0",
"/#	c #C7CED2",
"(#	c #C88A92",
"_#	c #C71727",
":#	c #C81727",
"<#	c #C91727",
"[#	c #871924",
"}#	c #9F3736",
"|#	c #974C56",
"1#	c #8B3E47",
"2#	c #A31E2A",
"3#	c #BB1624",
"4#	c #BC1624",
"5#	c #BD1624",
"6#	c #BE1725",
"7#	c #BF404C",
"8#	c #C0C5C9",
"9#	c #C0C6CA",
"0#	c #C1C8CC",
"a#	c #C3C9CD",
"b#	c #C3CACE",
"c#	c #C6CDD1",
"d#	c #C7CDD1",
"e#	c #C8434F",
"f#	c #C91726",
"g#	c #AC202D",
"h#	c #90404A",
"i#	c #9C8188",
"j#	c #B32F3C",
"k#	c #BE1826",
"l#	c #C0A4AA",
"m#	c #C6CCD0",
"n#	c #C8CED2",
"o#	c #C9AFB5",
"p#	c #C81A28",
"q#	c #C81625",
"r#	c #BE333F",
"s#	c #A5868E",
"t#	c #A18189",
"u#	c #A75962",
"v#	c #BE616A",
"w#	c #BFC5C9",
"x#	c #C2C9CC",
"y#	c #C8CFD3",
"z#	c #C7656F",
"A#	c #C51B29",
"B#	c #AF5E68",
"C#	c #A8848D",
"D#	c #AB888E",
"E#	c #9C878F",
"F#	c #A9AAAF",
"G#	c #C1C8CD",
"H#	c #B0B2B7",
"I#	c #A28C93",
"J#	c #B08891",
"K#	c #A8AFB4",
"L#	c #9EA6AC",
"M#	c #9EA6AB",
"N#	c #A8AFB5",
"O#	c #B1B8BC",
"P#	c #B8BFC3",
"Q#	c #BBC2C6",
"R#	c #BCC2C6",
"S#	c #B9C1C6",
"T#	c #B5BCC1",
"U#	c #AEB5B9",
"V#	c #A3ABB1",
"W#	c #ACB3B8",
"X#	c #A7B1B5",
"Y#	c #A6AFB4",
"Z#	c #A4ADB3",
"`#	c #A2ACB0",
" $	c #A4ADB1",
".$	c #A6AEB4",
"+$	c #A9B1B7",
"                                                                                ",
"                                                                                ",
"                                                                                ",
"                                    . + + .                                     ",
"                            @ # # # # # # # # # # $                             ",
"                      % & * = = = = = = = = = = = = * - ;                       ",
"                    > , ' ) ! ! ! ! ! ! ! ! ! ! ! ! ) ' , >                     ",
"                  ~ { { { ] ^ / / / / / / / / / / ( _ { { { :                   ",
"                < [ } | | | 1 2 3 3 3 3 3 3 3 3 2 1 | | | | 4 5                 ",
"              6 7 8 9 0 a a a b c c c c c c c c b a a a a a d e f               ",
"            g h i j k l m n n o p q q q q q q r s n n n n n t u v w             ",
"          x y z A B C D E F y y G H H H H H H G y y y y y y y I J y K           ",
"          L M N B O P P Q R S T U V W W W W V U T T T T T T T X Y Z `           ",
"         ...+.@.#.$.$.%.&.*.=.-.;.            >.,...............'.)...!.        ",
"        ~.{.].O ^.^././.(._.:.                    <.[.[.[.[.[.[.}.|.1.2.        ",
"        3.4.5.6.7.8.9.9.0.a.                        b.c.c.c.c.c.d.e.f.g.        ",
"        h.i.j.k.l.m.n.o.p.q.                        r.s.s.s.t.u.h.v.w.h.        ",
"        x.y.z.A.B.C.D.E.F.                            G.H.I.J.x.x.K.L.x.        ",
"      M.N.O.P.A.Q.R.S.T.U.                            V.W.N.N.N.N.X.Y.N.Z.      ",
"      `. +.+++@+#+$+S.%+&+                            *+ + + + + + +=+ +-+      ",
"      ;+>+,+k.'+)+$+!+!+~+                            -+-+-+-+-+-+-+{+-+]+      ",
"      ^+/+(+_+'+Q.:+!+<+[+                            }+|+/+/+/+/+/+1+/+2+      ",
"      3+4+5+++)+6+7+8+9+0+                            a+b+c+d+4+4+e+f+4+g+      ",
"        h+i+j+Q.l.k+l+m+n+o+                        p+q+q+q+r+s+h+t+u+v+        ",
"        w+x+y+z+A+B+A+C+D+E+                        F+G+G+G+G+G+H+I+J+K+        ",
"        L+M+N+O+P+O+Q+R+S+T+U+                    V+W+X+Y+Y+Y+Y+Y+Z+`+ @        ",
"        .@+@@@#@$@%@&@*@=@=@-@;@>@            ,@'@)@!@~@{@]@]@]@^@/@(@_@        ",
"          :@<@[@}@|@*@1@1@2@3@4@5@6@7@8@8@9@0@a@b@c@d@e@f@g@g@g@h@i@j@          ",
"          k@l@m@n@o@p@q@r@s@t@t@u@v@w@x@y@z@A@B@C@D@E@E@F@G@G@H@I@J@K@          ",
"            L@M@N@O@P@Q@R@S@T@U@V@W@X@Y@Z@z@`@ #.#+#+#@#####$#%#&#*#            ",
"              =#-#;#>#,#'#)#T@!#~#{#]#Y@y@9@^#/#(#_#:#<#<#<#[#}#|#              ",
"                1#2#3#4#5#6#7#8#9#0#]#a#b#9@c#/#d#e#f#f#f#f#g#h#                ",
"                  i#j#4#5#k#l#8#~#x@8@a#y@m#d#d#n#o#p#q#q#r#s#                  ",
"                    t#u#*@v#w#{#0#x#a#b#^#c#c#/#y#y#z#A#B#C#                    ",
"                      D#E#F#:+{#X@x@]#9@^#^#c#/#/#G#H#I#J#                      ",
"                          K#L#M#N#O#P#Q#R#S#T#U#V#V#W#                          ",
"                                X#Y#Z#`# $.$+$                                  ",
"                                                                                ",
"                                                                                ",
"                                                                                "};
