/* XPM */
static char * logout_16x16_xpm[] = {
"24 24 3 1",
" 	c None",
".	c #EFF0F2",
"+	c #EFF0F1",
"       ..........       ",
"     ..............     ",
"    ....       .....    ",
"   ...           ....   ",
"  ...             ....  ",
" ...               ...  ",
" ..      ..         ... ",
"...     ....        ... ",
"..       ....        .. ",
"..        ....       .. ",
"..         ....      .. ",
"..          ...      .. ",
"..          ...      .. ",
"..         ...       .. ",
"..        ...        .. ",
"...      ...         .. ",
"...     ...         ... ",
" ...                ..  ",
" ....              ...  ",
"  ....            ...   ",
"   .....        ....    ",
"    ...............     ",
"      .....++....       ",
"                        "};
