/* XPM */
static char * reboot_16x16_xpm[] = {
"32 32 9 1",
" 	c None",
".	c #EFEFF1",
"+	c #EFF0F2",
"@	c #EFF0F0",
"#	c #EFF0F1",
"$	c #EEF0F1",
"%	c #F0F0F1",
"&	c #EEF0F2",
"*	c #EFF1F1",
"                                ",
"                                ",
"                                ",
"                                ",
"             .+@#$$             ",
"          .##########@          ",
"           #@      $###         ",
"                     @##        ",
"                       ##       ",
"                        ##      ",
"     .                  @#@     ",
"     #$                  ##     ",
"     ##@                 +#     ",
"    .#$##                 #%    ",
"    ## &##                #$    ",
"    @#  .#%               ##    ",
"    ##               %#@  #@    ",
"    ##                $#@ ##    ",
"    %#                 $###*    ",
"     #.                 $##     ",
"     ##                  $#     ",
"     @#+                  *     ",
"      ##                        ",
"       ##                       ",
"        ##*                     ",
"         ###$      @#           ",
"          @##########.          ",
"             %%#@#*             ",
"                                ",
"                                ",
"                                ",
"                                "};
