/* XPM */
static char * system_run_xpm[] = {
"24 24 6 1",
" 	c None",
".	c #EFF0F1",
"+	c #EFEFF1",
"@	c #F0F0F1",
"#	c #EFF0F0",
"$	c #EFF1F1",
"........................",
"........................",
"........................",
"........................",
"........................",
"........................",
"..                    ..",
"..                    ..",
"..      +             ..",
"..      .@            ..",
"..      ..#           ..",
"..      ....+         ..",
"..      .....@        ..",
"..      ......#       ..",
"..      ......#       ..",
"..      .....@        ..",
"..      ....+         ..",
"..      ..#           ..",
"..      .@            ..",
"..      $             ..",
"..                    ..",
"..                    ..",
"........................",
"........................"};
