/* XPM */
static char * systemsettings_xpm[] = {
"16 16 118 2",
"  	c #878989",
". 	c #8A8D8E",
"+ 	c #898A8D",
"@ 	c #87888A",
"# 	c #858788",
"$ 	c #838587",
"% 	c #818385",
"& 	c #7F8183",
"* 	c #7E7F81",
"= 	c #7C7E7F",
"- 	c #7A7C7E",
"; 	c #787A7C",
"> 	c #76787A",
", 	c #747678",
"' 	c #737577",
") 	c #6C6F71",
"! 	c #646668",
"~ 	c #56595B",
"{ 	c #545659",
"] 	c #515456",
"^ 	c #4E5053",
"/ 	c #4B4E51",
"( 	c #494C4E",
"_ 	c #47494C",
": 	c #444749",
"< 	c #414346",
"[ 	c #3E4144",
"} 	c #3C3F41",
"| 	c #393C3F",
"1 	c #373A3D",
"2 	c #34373A",
"3 	c #404245",
"4 	c #535558",
"5 	c #505355",
"6 	c #46484B",
"7 	c #434649",
"8 	c #393B3E",
"9 	c #36393C",
"0 	c #343639",
"a 	c #313437",
"b 	c #2F3235",
"c 	c #484B4D",
"d 	c #3D4043",
"e 	c #3B3E41",
"f 	c #303336",
"g 	c #2E3134",
"h 	c #2D3033",
"i 	c #4D5052",
"j 	c #4B4D50",
"k 	c #424548",
"l 	c #404345",
"m 	c #9C9E9F",
"n 	c #F1F1F1",
"o 	c #98999A",
"p 	c #3687CF",
"q 	c #3593E6",
"r 	c #F0F5F9",
"s 	c #FAFAFA",
"t 	c #4C4F50",
"u 	c #4A4C4F",
"v 	c #474A4D",
"w 	c #424547",
"x 	c #2D2F31",
"y 	c #2A2C2D",
"z 	c #292A2C",
"A 	c #282A2C",
"B 	c #27292B",
"C 	c #26282A",
"D 	c #25282A",
"E 	c #939495",
"F 	c #F0F0F0",
"G 	c #929394",
"H 	c #242629",
"I 	c #292B2E",
"J 	c #45484A",
"K 	c #424447",
"L 	c #3D3F42",
"M 	c #2B2D2F",
"N 	c #25272A",
"O 	c #252729",
"P 	c #232528",
"Q 	c #222527",
"R 	c #232628",
"S 	c #26282B",
"T 	c #292C2F",
"U 	c #3F4245",
"V 	c #292B2D",
"W 	c #26292B",
"X 	c #272A2C",
"Y 	c #9B9C9E",
"Z 	c #282A2D",
"` 	c #3486CD",
" .	c #4E5052",
"..	c #4F5053",
"+.	c #505154",
"@.	c #505254",
"#.	c #505354",
"$.	c #4B4E4F",
"%.	c #282B2E",
"&.	c #343739",
"*.	c #27282A",
"=.	c #242628",
"-.	c #929495",
";.	c #333639",
">.	c #2A2D30",
",.	c #35383B",
"'.	c #2B2E30",
").	c #2A2D2F",
"!.	c #202224",
"~.	c #1D1F21",
"{.	c #1B1D1E",
"].	c #1B1D1F",
"^.	c #1C1D20",
"/.	c #1C1E20",
"(.	c #1D2022",
"_.	c #1E2022",
":.	c #1F2022",
"<.	c #202325",
"  . + @ # $ % & * = - ; > , ' ) ",
"! ~ { ] ^ / ( _ : < [ } | 1 2 3 ",
"~ 4 5 ^ / ( 6 7 < [ } 8 9 0 a b ",
"4 5 ^ / c 6 7 < d e 8 9 0 f g h ",
"5 i j c 6 k l d e 8 m n o g h h ",
"i j p q q q q q q q r s n t h h ",
"u v w x y z A B C D E F G H I h ",
"v J K L M A B N O P Q R H N S T ",
": K U L 1 V N O P Q R H N S W X ",
"K [ } | 1 Y n E Q R H N S W X Z ",
"[ } ` q q r s n  ...+.@.#.$.Z %.",
"e 8 &.*.=.-.F G H N S W X Z %.T ",
"8 9 ;.h P Q R H N S W X Z %.T >.",
",.;.f g >.R H N S W X Z %.T >.'.",
"b f h h h ).N S W X Z %.T >.'.I ",
"Q !.!.!.!.!.~.{.].^./.~.(._.:.<."};
