/* XPM */
static char * shutdown_16x16_xpm[] = {
"32 32 2 1",
" 	c None",
".	c #F0F0F1",
"                                ",
"                                ",
"                                ",
"            ........            ",
"         ..............         ",
"        ................        ",
"       ....   ...   .....       ",
"      ...     ...     ....      ",
"     ...      ...      ....     ",
"    ...       ...       ...     ",
"    ..        ...       ...     ",
"    ..        ...        ...    ",
"   ...        ...        ...    ",
"   ..                     ..    ",
"   ..                     ..    ",
"   ..                     ..    ",
"   ..                     ..    ",
"   ..                     ..    ",
"   ...                    ..    ",
"   ...                   ...    ",
"    ...                  ..     ",
"    ...                 ...     ",
"    ....                ...     ",
"     ....              ...      ",
"      .....          ....       ",
"       ......      .....        ",
"        ...............         ",
"          ............          ",
"            .......             ",
"                                ",
"                                ",
"                                "};
