/* XPM */
static char * suspend_16x16_xpm[] = {
"32 32 8 1",
" 	c None",
".	c #F0F0F1",
"+	c #EFF0F2",
"@	c #EEF0F0",
"#	c #EFF0F1",
"$	c #EEF0F2",
"%	c #EFF0F0",
"&	c #EFEFF1",
"                                ",
"                                ",
"                                ",
"                      .....     ",
"                     .++++.     ",
"         ..          ......     ",
"        ...             ..@     ",
"       .+#.            ..@      ",
"      .....    .....  ......    ",
"     .....    ...##.........    ",
"     .....        #.            ",
"    ......      ...             ",
"   +..  ..     .....            ",
"   +..  ...   ......            ",
"   +..  ...    $$$$$            ",
"   ...  ...                     ",
"   ...   ...                    ",
"    ..   ....                   ",
"    ..    ....                  ",
"    ...    ....                 ",
"    ...     ......     ...      ",
"     ...     ..........%#.      ",
"     ....      ........##.      ",
"      ....            ...       ",
"       .....        ....        ",
"        ...............         ",
"          .....##....           ",
"              ...&              ",
"                                ",
"                                ",
"                                ",
"                                "};
