/* XPM */
static char * utilities_terminal_xpm[] = {
"16 16 134 2",
"  	c #828A8A",
". 	c #838D8D",
"+ 	c #838B8C",
"@ 	c #818A8A",
"# 	c #818889",
"$ 	c #808888",
"% 	c #7F8787",
"& 	c #7F8686",
"* 	c #7D8586",
"= 	c #7C8384",
"- 	c #7C8383",
"; 	c #7B8283",
"> 	c #7A8182",
", 	c #7A8081",
"' 	c #757B7C",
") 	c #5B6767",
"! 	c #4E5A5B",
"~ 	c #4D5959",
"{ 	c #4C5758",
"] 	c #4B5657",
"^ 	c #495555",
"/ 	c #485354",
"( 	c #475253",
"_ 	c #465151",
": 	c #454F50",
"< 	c #444E4F",
"[ 	c #434C4E",
"} 	c #424B4C",
"| 	c #414A4B",
"1 	c #40484A",
"2 	c #4D5455",
"3 	c #4D5A5A",
"4 	c #4C5859",
"5 	c #4B5758",
"6 	c #4A5656",
"7 	c #495455",
"8 	c #465051",
"9 	c #434C4D",
"0 	c #41494B",
"a 	c #404849",
"b 	c #3F4748",
"c 	c #3E4547",
"d 	c #4B5757",
"e 	c #4A5556",
"f 	c #475152",
"g 	c #444D4E",
"h 	c #3E4648",
"i 	c #3D4547",
"j 	c #3C4445",
"k 	c #485253",
"l 	c #AFB4B4",
"m 	c #5C6465",
"n 	c #424C4D",
"o 	c #414A4C",
"p 	c #40494A",
"q 	c #3F4849",
"r 	c #3D4546",
"s 	c #3C4345",
"t 	c #3B4244",
"u 	c #495454",
"v 	c #465152",
"w 	c #5D6768",
"x 	c #CACECF",
"y 	c #596262",
"z 	c #3F4749",
"A 	c #3E4647",
"B 	c #3A4042",
"C 	c #5C6364",
"D 	c #C7CBCB",
"E 	c #575E5F",
"F 	c #3D4446",
"G 	c #3B4243",
"H 	c #393F41",
"I 	c #555B5D",
"J 	c #3B4344",
"K 	c #3A4143",
"L 	c #394042",
"M 	c #383F40",
"N 	c #373D3F",
"O 	c #565E5F",
"P 	c #C1C4C4",
"Q 	c #4C5053",
"R 	c #383F41",
"S 	c #394041",
"T 	c #383E40",
"U 	c #363C3E",
"V 	c #454E4F",
"W 	c #494E51",
"X 	c #323839",
"Y 	c #32373A",
"Z 	c #363C3F",
"` 	c #363B3D",
" .	c #353A3C",
"..	c #434D4E",
"+.	c #424B4D",
"@.	c #C0C5C5",
"#.	c #323739",
"$.	c #313738",
"%.	c #323738",
"&.	c #323638",
"*.	c #33383B",
"=.	c #A4A9AA",
"-.	c #484E4F",
";.	c #313637",
">.	c #303537",
",.	c #303637",
"'.	c #313538",
").	c #33383A",
"!.	c #32383B",
"~.	c #303737",
"{.	c #303538",
"].	c #313638",
"^.	c #323639",
"/.	c #313537",
"(.	c #313639",
"_.	c #303438",
":.	c #303437",
"<.	c #303336",
"[.	c #2F3336",
"}.	c #2B2E30",
"|.	c #2C3233",
"1.	c #2A2F30",
"2.	c #292E30",
"3.	c #292D2E",
"4.	c #282C2E",
"5.	c #272C2D",
"6.	c #272A2C",
"7.	c #26292B",
"8.	c #25292A",
"9.	c #242729",
"0.	c #222527",
"a.	c #212425",
"b.	c #202225",
"c.	c #202425",
"  . +   @ # $ % & * = - ; > , ' ",
") ! ~ { ] ^ / ( _ : < [ } | 1 2 ",
"3 4 5 6 7 / ( 8 : < 9 } 0 a b c ",
"4 d e 7 / f 8 : g 9 } 0 a h i j ",
"d e 7 k f 8 l m n o p q h r s t ",
"e u k v : < w x y p z A r s t B ",
"/ ( _ : < [ } C D E A F s G B H ",
"( 8 : < 9 } 0 a m D I J K L M N ",
"8 : g 9 } 0 a h O P Q R S T N U ",
"V g n o p q h O P W X Y Z N `  .",
"..+.| p z A O @.W #.$.%.&. . .*.",
"} | 1 b A F =.-.%.$.;.>.,.'.).#.",
"0 a b c F J B !.~.;.{.{.{.].^./.",
"a h i j t K S N (._.:.{.'.&./.<.",
"K r s t K H T N  .;.{./.&.:.[.}.",
"|.1.2.3.4.5.6.7.8.9.0.0.0.a.b.c."};
