/* XPM */
static char * closeI_xpm[] = {
"30 52 3 1",
" 	c #31363B",
".	c #909296",
"+	c #AAB1B8",
"                              ",
"                              ",
"                              ",
"                              ",
"                              ",
"                              ",
"                              ",
"                              ",
"                              ",
"         .      .             ",
"        .+.    .+.            ",
"         .+.  .+.             ",
"          .+..+.              ",
"           .++.               ",
"           .++.               ",
"          .+..+.              ",
"         .+.  .+.             ",
"        .+.    .+.            ",
"         .      .             ",
"                              ",
"                              ",
"                              ",
"                              ",
"                              ",
"                              ",
"                              ",
"                              ",
"                              ",
"                              ",
"                              ",
"                              ",
"                              ",
"                              ",
"                              ",
"                              ",
"                              ",
"                              ",
"                              ",
"                              ",
"                              ",
"                              ",
"                              ",
"                              ",
"                              ",
"                              ",
"                              ",
"                              ",
"                              ",
"                              ",
"                              ",
"                              ",
"                              "};
