/* XPM */
static char * frameABL_xpm[] = {
"5 5 2 1",
" 	c None",
".	c #31363A",
" ....",
" ....",
"  ...",
"   ..",
"     "};
