/* XPM */
static char * start_xpm[] = {
"36 36 100 2",
"  	c #2A2D32",
". 	c #B3B1B6",
"+ 	c #A8A6AB",
"@ 	c #59575C",
"# 	c #E3E1E6",
"$ 	c #C3C1C6",
"% 	c #E2E0E5",
"& 	c #C8C6C9",
"* 	c #B5B3B8",
"= 	c #B4B3B8",
"- 	c #C7C7C9",
"; 	c #D9D9DB",
"> 	c #E6E6E8",
", 	c #DFDFDF",
"' 	c #C5C5C7",
") 	c #C8C8CA",
"! 	c #E4E4E6",
"~ 	c #D8D8D8",
"{ 	c #DEDEDE",
"] 	c #D9D9D9",
"^ 	c #CFCFCF",
"/ 	c #E1E1E1",
"( 	c #E6E6E6",
"_ 	c #D6D6D6",
": 	c #C4C4C4",
"< 	c #BEBEBE",
"[ 	c #E4E4E4",
"} 	c #E3E3E3",
"| 	c #C7C7C7",
"1 	c #CBCBCD",
"2 	c #DADADA",
"3 	c #E8E8E8",
"4 	c #E0E0E0",
"5 	c #C6C5CA",
"6 	c #D4D4D4",
"7 	c #E2E2E4",
"8 	c #E1E0E5",
"9 	c #AFAEB3",
"0 	c #C1C1C3",
"a 	c #C4C3C8",
"b 	c #A2A0A5",
"c 	c #DDDBE0",
"d 	c #C6C6C8",
"e 	c #E0E0E2",
"f 	c #E1E1E3",
"g 	c #D5D5D7",
"h 	c #CECED0",
"i 	c #A7A5AA",
"j 	c #E1DFE4",
"k 	c #DCDADF",
"l 	c #DEDCE1",
"m 	c #AFADB2",
"n 	c #E3E3E5",
"o 	c #DDDDDF",
"p 	c #DFDFE1",
"q 	c #E5E5E7",
"r 	c #BABABC",
"s 	c #CECCD1",
"t 	c #E4E2E7",
"u 	c #D0CED3",
"v 	c #DEDEE0",
"w 	c #C0C0C2",
"x 	c #DFDDE2",
"y 	c #E0DEE3",
"z 	c #A9A7AC",
"A 	c #BFBFC1",
"B 	c #CBCACF",
"C 	c #D5D3D8",
"D 	c #A5A3A8",
"E 	c #C9C9CB",
"F 	c #B1B0B5",
"G 	c #7D7C7A",
"H 	c #D1D0CE",
"I 	c #C7C6C4",
"J 	c #858482",
"K 	c #7E7C7D",
"L 	c #E1E0DE",
"M 	c #DAD9D7",
"N 	c #D9D8D6",
"O 	c #DFDEDC",
"P 	c #838280",
"Q 	c #CFCDCE",
"R 	c #E4E3E1",
"S 	c #E6E5E3",
"T 	c #E0DEDF",
"U 	c #C7C5C6",
"V 	c #C6C4C5",
"W 	c #DCDBD9",
"X 	c #E3E1E2",
"Y 	c #CECCCD",
"Z 	c #838182",
"` 	c #DEDDDB",
" .	c #E1DFE0",
"..	c #E2E0E1",
"+.	c #DAD8D9",
"@.	c #7F7D7E",
"#.	c #7A7977",
"$.	c #C9C7C8",
"%.	c #CCCACB",
"&.	c #828081",
"                                                                        ",
"                                                                        ",
"                                                                        ",
"                                                                        ",
"                                                                        ",
"                                                                        ",
"                      . .                   +                           ",
"                    @ # # @               $ % &                         ",
"                      * =               - ; > , '                       ",
"                                        ) ! ~ { ] ^                     ",
"                                          - / / ( _ :                   ",
"                                            < [ ~ , } |                 ",
"                                              1 2 3 4 , 5               ",
"                                                ( / 6 7 8 9             ",
"                                              0 ; ! > ; a               ",
"              b c +                         d e f f g h                 ",
"            i j k l m                     ' n o p q r                   ",
"            s # t t u                   d n g f v w                     ",
"            b l x y z                   A > q o B                       ",
"              i C D                       E g '                         ",
"                                            F                           ",
"                                                                        ",
"                                                                        ",
"                                                                        ",
"                          G H I J                                       ",
"                        K L M N O P                                     ",
"                        Q R R S T U                                     ",
"                        V O L W X Y                                     ",
"                        Z `  ...+.@.                                    ",
"                          #.$.%.&.                                      ",
"                                                                        ",
"                                                                        ",
"                                                                        ",
"                                                                        ",
"                                                                        ",
"                                                                        "};
