/* XPM */
static char * closeA_xpm[] = {
"30 52 9 1",
" 	c #2A2A2A",
".	c #6C6D6F",
"+	c #6D6F71",
"@	c #F5F5F6",
"#	c #8E8F90",
"$	c #8B8C8E",
"%	c #919293",
"&	c #F5F5F5",
"*	c #8F9091",
"                              ",
"                              ",
"                              ",
"                              ",
"                              ",
"                              ",
"                              ",
"                              ",
"                              ",
"         .      .             ",
"        +@#    #@+            ",
"         $@%  $&%             ",
"          $@%$@%              ",
"           *@@*               ",
"           *@@*               ",
"          $@%$@%              ",
"         $@%  $&%             ",
"        +@*    *@+            ",
"         +      +             ",
"                              ",
"                              ",
"                              ",
"                              ",
"                              ",
"                              ",
"                              ",
"                              ",
"                              ",
"                              ",
"                              ",
"                              ",
"                              ",
"                              ",
"                              ",
"                              ",
"                              ",
"                              ",
"                              ",
"                              ",
"                              ",
"                              ",
"                              ",
"                              ",
"                              ",
"                              ",
"                              ",
"                              ",
"                              ",
"                              ",
"                              ",
"                              ",
"                              "};
