/* XPM */
static char * minimizeO_xpm[] = {
"30 52 68 1",
" 	c #2A2A2A",
".	c #919293",
"+	c #CCCCCD",
"@	c #EAEAEA",
"#	c #F7F7F7",
"$	c #E9EAEA",
"%	c #CBCCCC",
"&	c #909192",
"*	c #747678",
"=	c #E0E0E0",
"-	c #FCFCFC",
";	c #DFE0E0",
">	c #737576",
",	c #8B8C8D",
"'	c #F5F5F5",
")	c #8A8B8C",
"!	c #F4F4F4",
"~	c #727375",
"{	c #DEDFDF",
"]	c #8F9092",
"^	c #CDCDCD",
"/	c #EEEEEE",
"(	c #CBCBCC",
"_	c #5D6062",
":	c #DFDFDF",
"<	c #E1E1E1",
"[	c #5F6164",
"}	c #DEDEDE",
"|	c #E0E1E1",
"1	c #F6F6F6",
"2	c #E9E9E9",
"3	c #CACBCB",
"4	c #8E9091",
"5	c #6E7072",
"6	c #F3F3F4",
"7	c #62676C",
"8	c #838A92",
"9	c #969EA6",
"0	c #9EA6AE",
"a	c #969DA5",
"b	c #838A91",
"c	c #60666B",
"d	c #505459",
"e	c #90979E",
"f	c #A1A9B1",
"g	c #8F979E",
"h	c #4E555A",
"i	c #5D6369",
"j	c #9CA4AC",
"k	c #5E6168",
"l	c #9CA4AD",
"m	c #4F5459",
"n	c #8F969D",
"o	c #5F646C",
"p	c #98A0A8",
"q	c #848991",
"r	c #43494F",
"s	c #90979F",
"t	c #90989F",
"u	c #454B4E",
"v	c #8E969D",
"w	c #8F989F",
"x	c #9DA5AD",
"y	c #969DA6",
"z	c #828991",
"A	c #60656B",
"B	c #4D5257",
"C	c #9CA3AB",
"                              ",
"                              ",
"                              ",
"                              ",
"                              ",
"             .+@##$%&         ",
"           *=--------;>       ",
"          ,'----------')      ",
"         *'------------!~     ",
"         {--------------=     ",
"        .----------------]    ",
"        ^---/--------/---(    ",
"        @--/_:------:_/--$    ",
"        #---<[}----|[}---#    ",
"        #----<[}--|[}----1    ",
"        @-----<[}|[}-----2    ",
"        +------:__:------3    ",
"        &-------::-------4    ",
"         }--------------;     ",
"         56------------!~     ",
"          )!----------!)      ",
"           >:--------{~       ",
"             ](2##2(4         ",
"                              ",
"                              ",
"                              ",
"                              ",
"                              ",
"                              ",
"                              ",
"                              ",
"             78900abc         ",
"           deffffffffgh       ",
"          ijffffffffffjk      ",
"         djfffffffffffflm     ",
"         nffffffffffffffe     ",
"        7ffffffffffffffffo    ",
"        8fffpffffffffpfffq    ",
"        9ffprsffffffsrpffa    ",
"        0ffftuvffffwuvfff0    ",
"        0fffftuvffwuvffffx    ",
"        9ffffftuvwuvfffffy    ",
"        8ffffffsrrsffffffz    ",
"        cfffffffssfffffffA    ",
"         vffffffffffffffg     ",
"         BCfffffffffffflm     ",
"          klfffffffffflk      ",
"           hsffffffffnm       ",
"             oqy00yqA         ",
"                              ",
"                              ",
"                              "};
