/* XPM */
static char * restoreO_xpm[] = {
"30 52 68 1",
" 	c #2A2A2A",
".	c #919293",
"+	c #CCCCCD",
"@	c #EAEAEA",
"#	c #F7F7F7",
"$	c #E9EAEA",
"%	c #CBCCCC",
"&	c #909192",
"*	c #747678",
"=	c #E0E0E0",
"-	c #FCFCFC",
";	c #DFE0E0",
">	c #737576",
",	c #8B8C8D",
"'	c #F5F5F5",
")	c #8A8B8C",
"!	c #F9F9F9",
"~	c #F4F4F4",
"{	c #727375",
"]	c #DEDFDF",
"^	c #9A9B9C",
"/	c #8F9092",
"(	c #CDCDCD",
"_	c #FAFAFA",
":	c #9B9C9D",
"<	c #969798",
"[	c #CBCBCC",
"}	c #F6F6F6",
"|	c #E9E9E9",
"1	c #CACBCB",
"2	c #8E9091",
"3	c #DEDEDE",
"4	c #6E7072",
"5	c #F3F3F4",
"6	c #DFDFDF",
"7	c #62676C",
"8	c #838A92",
"9	c #969EA6",
"0	c #9EA6AE",
"a	c #969DA5",
"b	c #838A91",
"c	c #60666B",
"d	c #505459",
"e	c #90979E",
"f	c #A1A9B1",
"g	c #8F979E",
"h	c #4E555A",
"i	c #5D6369",
"j	c #9CA4AC",
"k	c #5E6168",
"l	c #9FA7AF",
"m	c #9CA4AD",
"n	c #4F5459",
"o	c #8F969D",
"p	c #666B72",
"q	c #5F646C",
"r	c #A0A8B0",
"s	c #676C73",
"t	c #64696E",
"u	c #848991",
"v	c #9DA5AD",
"w	c #969DA6",
"x	c #828991",
"y	c #60656B",
"z	c #8E969D",
"A	c #4D5257",
"B	c #9CA3AB",
"C	c #90979F",
"                              ",
"                              ",
"                              ",
"                              ",
"                              ",
"           .+@##$%&           ",
"         *=--------;>         ",
"        ,'----------')        ",
"       *'-----!!-----~{       ",
"       ]-----!^^!-----=       ",
"      .-----!^^^^!-----/      ",
"      (----_:<!_:<!----[      ",
"      @---_:<!--_:<!---$      ",
"      #--!^^!----!^^!--#      ",
"      #--!^^!----!^^!--}      ",
"      @---_:<!--_:<!---|      ",
"      +----_:<!_:<!----1      ",
"      &-----!^^^^!-----2      ",
"       3-----!^^!-----;       ",
"       45-----!!-----~{       ",
"        )~----------~)        ",
"         >6--------]{         ",
"           /[|##|[2           ",
"                              ",
"                              ",
"                              ",
"                              ",
"                              ",
"                              ",
"                              ",
"                              ",
"           78900abc           ",
"         deffffffffgh         ",
"        ijffffffffffjk        ",
"       djfffffllfffffmn       ",
"       offffflpplfffffe       ",
"      7ffffflpppplfffffq      ",
"      8ffffrstlrstlffffu      ",
"      9fffrstlffrstlfffa      ",
"      0fflpplfffflpplff0      ",
"      0fflpplfffflpplffv      ",
"      9fffrstlffrstlfffw      ",
"      8ffffrstlrstlffffx      ",
"      cffffflpppplfffffy      ",
"       zffffflpplfffffg       ",
"       ABfffffllfffffmn       ",
"        kmffffffffffmk        ",
"         hCffffffffon         ",
"           quw00wuy           ",
"                              ",
"                              ",
"                              "};
