/* XPM */
static char * restoreA_xpm[] = {
"30 52 7 1",
" 	c #2A2A2A",
".	c #414549",
"+	c #D7D8D8",
"@	c #3F4347",
"#	c #D7D7D7",
"$	c #DADADA",
"%	c #44474B",
"                              ",
"                              ",
"                              ",
"                              ",
"                              ",
"                              ",
"                              ",
"                              ",
"              ..              ",
"             .++.             ",
"            .++++.            ",
"           @#$%@#$%           ",
"          @#$%  @#$%          ",
"         .++.    .++.         ",
"         .++.    .++.         ",
"          @#$%  @#$%          ",
"           @#$%@#$%           ",
"            .++++.            ",
"             .++.             ",
"              ..              ",
"                              ",
"                              ",
"                              ",
"                              ",
"                              ",
"                              ",
"                              ",
"                              ",
"                              ",
"                              ",
"                              ",
"                              ",
"                              ",
"                              ",
"                              ",
"                              ",
"                              ",
"                              ",
"                              ",
"                              ",
"                              ",
"                              ",
"                              ",
"                              ",
"                              ",
"                              ",
"                              ",
"                              ",
"                              ",
"                              ",
"                              ",
"                              "};
