/* XPM */
static char * app_32x32_xpm[] = {
"32 32 258 2",
"  	c None",
". 	c #C6CDD1",
"+ 	c #999FA2",
"@ 	c #5F6367",
"# 	c #606367",
"$ 	c #616569",
"% 	c #6E7276",
"& 	c #C5CCD0",
"* 	c #B7BDC2",
"= 	c #6E7376",
"- 	c #ADB3B8",
"; 	c #C2C8CC",
"> 	c #494C4F",
", 	c #2D2F32",
"' 	c #2E3134",
") 	c #303235",
"! 	c #7C8084",
"~ 	c #C3CACE",
"{ 	c #5E6266",
"] 	c #6E7476",
"^ 	c #ADB3B7",
"/ 	c #333538",
"( 	c #333639",
"_ 	c #A1A7AA",
": 	c #797E81",
"< 	c #54585B",
"[ 	c #BFC6CA",
"} 	c #878C90",
"| 	c #313437",
"1 	c #434649",
"2 	c #C3B7AE",
"3 	c #D5B299",
"4 	c #D5B49A",
"5 	c #D3B9A2",
"6 	c #CFC2B5",
"7 	c #C7CCCD",
"8 	c #9CA1A5",
"9 	c #44484B",
"0 	c #B0B5BA",
"a 	c #C6CACD",
"b 	c #6C625F",
"c 	c #6F6965",
"d 	c #E5965C",
"e 	c #CAC7C4",
"f 	c #C9C8C7",
"g 	c #CDC4B9",
"h 	c #C1B1A0",
"i 	c #A99C8A",
"j 	c #C7CCCE",
"k 	c #D2A493",
"l 	c #E56D37",
"m 	c #D9865F",
"n 	c #3F4245",
"o 	c #34373A",
"p 	c #9D8E84",
"q 	c #C9C8C5",
"r 	c #C2C9CC",
"s 	c #56595D",
"t 	c #757A7D",
"u 	c #C9CBCA",
"v 	c #D9C09E",
"w 	c #D6C4A8",
"x 	c #C6CCD0",
"y 	c #D8896C",
"z 	c #E8581E",
"A 	c #DC8864",
"B 	c #C7CACC",
"C 	c #9DA4A6",
"D 	c #393C40",
"E 	c #B2B0AE",
"F 	c #6E7478",
"G 	c #54595C",
"H 	c #C1C8CC",
"I 	c #D1C7B5",
"J 	c #DDC395",
"K 	c #C5CBCF",
"L 	c #D7876D",
"M 	c #E6531B",
"N 	c #DF784F",
"O 	c #C7CCCF",
"P 	c #74797C",
"Q 	c #35383B",
"R 	c #53575A",
"S 	c #909599",
"T 	c #414649",
"U 	c #B4BABE",
"V 	c #D1C9B5",
"W 	c #E0C288",
"X 	c #CCB7B2",
"Y 	c #E54F1B",
"Z 	c #E7551D",
"` 	c #CCB8B0",
" .	c #C2C9CD",
"..	c #4F5255",
"+.	c #6A6E71",
"@.	c #3D4043",
"#.	c #9BA0A4",
"$.	c #E5C381",
"%.	c #C7C2B3",
"&.	c #D78A71",
"*.	c #E54E19",
"=.	c #E46131",
"-.	c #ADB4B8",
";.	c #36393C",
">.	c #585C60",
",.	c #4A4E52",
"'.	c #383B3E",
").	c #92979C",
"!.	c #D6C9AB",
"~.	c #DABF88",
"{.	c #C0C8CC",
"].	c #D97B5A",
"^.	c #E64F19",
"/.	c #E06B3E",
"(.	c #7D8286",
"_.	c #464A4D",
":.	c #595E61",
"<.	c #373A3D",
"[.	c #414547",
"}.	c #D4CAB2",
"|.	c #E5C27B",
"1.	c #BAC1C5",
"2.	c #C4CBCF",
"3.	c #D6886F",
"4.	c #E6501A",
"5.	c #E55B25",
"6.	c #C7C9CB",
"7.	c #A0A5A9",
"8.	c #37393D",
"9.	c #A6ABAF",
"0.	c #73777B",
"a.	c #393D40",
"b.	c #585C5E",
"c.	c #DDC89A",
"d.	c #DEC288",
"e.	c #BCC4C8",
"f.	c #CDB0A7",
"g.	c #E7561D",
"h.	c #D49E86",
"i.	c #B8BFC2",
"j.	c #3F4246",
"k.	c #515559",
"l.	c #3B3E41",
"m.	c #808589",
"n.	c #C7CDCE",
"o.	c #F3C264",
"p.	c #CAC4AE",
"q.	c #DB7A56",
"r.	c #E7571D",
"s.	c #E76228",
"t.	c #CDB9B1",
"u.	c #54575A",
"v.	c #63676B",
"w.	c #AEB4B8",
"x.	c #3E4144",
"y.	c #A4AAAE",
"z.	c #E4C283",
"A.	c #E8C278",
"B.	c #C4CBD0",
"C.	c #C8C7C8",
"D.	c #DF7145",
"E.	c #E95D20",
"F.	c #E8692C",
"G.	c #99735F",
"H.	c #45484C",
"I.	c #BDC4C8",
"J.	c #8A8F92",
"K.	c #3C4043",
"L.	c #4E5154",
"M.	c #C1C2C0",
"N.	c #E6BC79",
"O.	c #EDBE6A",
"P.	c #C3C6C5",
"Q.	c #C4C8CB",
"R.	c #D28765",
"S.	c #E86525",
"T.	c #EB6A26",
"U.	c #DA814D",
"V.	c #D2B29E",
"W.	c #C7CBCE",
"X.	c #65696C",
"Y.	c #504A43",
"Z.	c #977345",
"`.	c #ECAA4C",
" +	c #E0BD82",
".+	c #C1C6C8",
"++	c #AFB5B9",
"@+	c #4F3D36",
"#+	c #BA724B",
"$+	c #E77534",
"%+	c #EE762C",
"&+	c #EC7F36",
"*+	c #E39155",
"=+	c #DE9F6C",
"-+	c #DBA87A",
";+	c #DFAA77",
">+	c #DFA56A",
",+	c #DC9341",
"'+	c #E89C42",
")+	c #AA7E44",
"!+	c #585244",
"~+	c #93989C",
"{+	c #C0C7CA",
"]+	c #45494C",
"^+	c #565B5E",
"/+	c #A6ADB0",
"(+	c #A7ACAE",
"_+	c #B7A398",
":+	c #C79D80",
"<+	c #CF9B72",
"[+	c #D69B6B",
"}+	c #D8A06F",
"|+	c #D5A77A",
"1+	c #D0AF8C",
"2+	c #ABA090",
"3+	c #404242",
"4+	c #3E4346",
"5+	c #464B4D",
"6+	c #B2B8BD",
"7+	c #7E8386",
"8+	c #A1A7AB",
"9+	c #A9AEB3",
"0+	c #ABB2B5",
"a+	c #ADB4B7",
"b+	c #B0B6BA",
"c+	c #B2B9BD",
"d+	c #B5BBBF",
"e+	c #B7BEC1",
"f+	c #B9C0C5",
"g+	c #BDC3C7",
"h+	c #9CA2A6",
"i+	c #959A9E",
"j+	c #979DA0",
"k+	c #989FA2",
"l+	c #AEB4B7",
"m+	c #BBC2C5",
"n+	c #AAAFB3",
"o+	c #ACB1B6",
"p+	c #AEB5B8",
"q+	c #B1B7BB",
"r+	c #B4BBBF",
"s+	c #BFC5C9",
"t+	c #C1C8CB",
"u+	c #B1B7BA",
"v+	c #B3B9BE",
"w+	c #B5BCC0",
"x+	c #BCC3C7",
"y+	c #B1B6BA",
"z+	c #BBC2C6",
"A+	c #BCC3C6",
"B+	c #B2B8BB",
"C+	c #A8AEB1",
"D+	c #AAB0B4",
"E+	c #ACB3B6",
"F+	c #AFB5B8",
"G+	c #B3BBBD",
"H+	c #B6BDBF",
"I+	c #B0B7BB",
"                                                                ",
"                                                                ",
"                                                                ",
"      . . . . . . . . . . . . . . . . . . . . . . . . . .       ",
"      . . . . . . . . . . . . . . . . . . . . . . . . . .       ",
"      . . . . . . . . . . . . . . . . . . . . . . . . . .       ",
"      . . . . . . . . . . . . . . . . . . . . . . . . . .       ",
"      . . . . + @ # $ % & . . . . . . . . . * = - . . . .       ",
"      . . . . ; > , ' ) ! . . . . . . . . ~ { ] . . . . .       ",
"      . . . . . ^ / ' ) ( _ . . . . . . . : < [ . . . . .       ",
"      . . . . . . } ' ) | 1 2 3 4 5 6 7 8 9 0 . . . . . .       ",
"      . . . . . . a b ) | / c d e f g h 9 i j . . . . . .       ",
"      . . . . . k l m n | / o p q . r s t u v w . . . . .       ",
"      . . . x y z A B C ( / o D E . F G H . . I J K . . .       ",
"      . . . L M N O . . P / o Q R S T U . . . . V W . . .       ",
"      . . X Y Z ` . . .  ...o Q +.@.#.. . . . . . $.%.. .       ",
"      . . &.*.=.. . . . . -.;.>.,.'.).. . . . . . !.~.{..       ",
"      . . ].^./.. . . . . (._.:.<.'.[.U . . . . . }.|.1.2.      ",
"      . . 3.4.5.6.. . . 7.8.9.0.<.'.a.b.~ . . . . c.d.e.[       ",
"      . . f.4.g.h.. . i.j.} .  .k.'.a.l.m.. . . n.o.p.[ ;       ",
"      . . . q.r.s.t.2.u.v.. . . w.@.a.l.x.y.. . z.A.[ ; B.      ",
"      . . . C.D.E.F.G.H.I.. . . . J.a.l.K.L.M.N.O.P. .2..       ",
"      . . . . Q.R.S.T.U.V.W.. . . & X.l.Y.Z.`. +.+ .2.. .       ",
"      . . . . . ++@+#+$+%+&+*+=+-+;+>+,+'+)+!+~+~ 2.. . .       ",
"      . . . . {+]+^+/+(+_+:+<+[+}+|+1+2+3+@.4+5+6+. . . .       ",
"      . . . . w.7+8+/+9+0+a+b+c+d+e+f+g+h+i+j+k+l+. . . .       ",
"      . . . . . m+/+n+o+p+q+6+r+e+f+g+s+t+2.. . . . . . .       ",
"      & . . . . . 1.o+p+u+v+w+i.1.x+s+t+2.. . . . . . . &       ",
"      y+z+A+A+A+A+A+B+C+D+E+F+q+G+H+i.m+A+A+A+A+A+A+A+z+I+      ",
"                                                                ",
"                                                                ",
"                                                                "};
