/* XPM */
static char * start_xpm[] = {
"16 16 67 1",
" 	c #2A2A2A",
".	c #3E3E3F",
"+	c #E2E0E5",
"@	c #858487",
"#	c #878688",
"$	c #9C9C9D",
"%	c #D8D8DA",
"&	c #DCDCDD",
"*	c #9A9A9C",
"=	c #9D9D9E",
"-	c #DCDCDE",
";	c #DEDEDE",
">	c #DADADA",
",	c #8F8F8F",
"'	c #8C8C8D",
")	c #DDDDDD",
"!	c #DCDCDC",
"~	c #9C9C9C",
"{	c #9F9FA0",
"]	c #DFDFDF",
"^	c #DBDBDD",
"/	c #88878B",
"(	c #979799",
"_	c #DEDEE0",
":	c #E2E2E4",
"<	c #D8D7DA",
"[	c #87878A",
"}	c #7C7A7E",
"|	c #D4D2D7",
"1	c #A7A6AA",
"2	c #8E8E90",
"3	c #E1E1E3",
"4	c #D4D4D6",
"5	c #A1A1A3",
"6	c #CDCBD0",
"7	c #DCDADF",
"8	c #706F72",
"9	c #9B9B9D",
"0	c #D9D9DB",
"a	c #8A8A8B",
"b	c #A3A2A6",
"c	c #DAD8DD",
"d	c #C6C4C9",
"e	c #565557",
"f	c #969697",
"g	c #E0E0E2",
"h	c #DADADC",
"i	c #9F9EA2",
"j	c #3C3C3D",
"k	c #717073",
"l	c #545356",
"m	c #88888A",
"n	c #878789",
"o	c #686766",
"p	c #C8C7C5",
"q	c #C2C1BF",
"r	c #6B6A69",
"s	c #C9C7C7",
"t	c #E2E1DF",
"u	c #C4C2C2",
"v	c #C3C1C1",
"w	c #E0DFDE",
"x	c #DEDDDC",
"y	c #C8C6C7",
"z	c #C4C2C3",
"A	c #C7C5C6",
"B	c #686767",
"  .++.    @#    ",
"  .++.   $%&*   ",
"   ..    =-;>,  ",
"          ')!!~ ",
"           {]]^/",
"           (_:<[",
"}|1.      2^345 ",
"6+78     9^_0a  ",
"bcde     fghi   ",
"jkl       mn    ",
"                ",
"                ",
"    opqr        ",
"    sttu        ",
"    vwxy        ",
"    ozAB        "};
