/* XPM */
static char * taskbuttonactive_xpm[] = {
"1 29 2 1",
" 	c #849C6F",
".	c #576450",
" ",
" ",
".",
".",
".",
".",
".",
".",
".",
".",
".",
".",
".",
".",
".",
".",
".",
".",
".",
".",
".",
".",
".",
".",
".",
".",
".",
".",
"."};
