/* XPM */
static char * preferences_desktop_theme_global_xpm[] = {
"32 32 684 2",
"  	c None",
". 	c #E21974",
"+ 	c #E2196F",
"@ 	c #DF1B72",
"# 	c #DA1D76",
"$ 	c #D2217E",
"% 	c #CC2587",
"& 	c #C7298A",
"* 	c #C22B8E",
"= 	c #BA2D91",
"- 	c #B33294",
"; 	c #A93897",
"> 	c #9F3C9B",
", 	c #814CA8",
"' 	c #7055AE",
") 	c #655AB2",
"! 	c #5A61B5",
"~ 	c #4E65B8",
"{ 	c #4C68B7",
"] 	c #5D789A",
"^ 	c #587D99",
"/ 	c #558097",
"( 	c #518596",
"_ 	c #4D8894",
": 	c #4A8C93",
"< 	c #498F91",
"[ 	c #4C9585",
"} 	c #4E9781",
"| 	c #4E9A80",
"1 	c #4E9C7D",
"2 	c #53A471",
"3 	c #E21971",
"4 	c #E31A6D",
"5 	c #E21A6F",
"6 	c #DC1B73",
"7 	c #D71F76",
"8 	c #CF227E",
"9 	c #C92787",
"0 	c #C4298B",
"a 	c #BE2D8F",
"b 	c #B63292",
"c 	c #AC3696",
"d 	c #A13A9A",
"e 	c #8B47A3",
"f 	c #7454AE",
"g 	c #6958B1",
"h 	c #5D5FB3",
"i 	c #5264B7",
"j 	c #5869AD",
"k 	c #5F7A95",
"l 	c #5B7F93",
"m 	c #578292",
"n 	c #548791",
"o 	c #4F8B8F",
"p 	c #4D8E8D",
"q 	c #529483",
"r 	c #52987E",
"s 	c #529B7A",
"t 	c #519D79",
"u 	c #509E78",
"v 	c #54A56D",
"w 	c #E21970",
"x 	c #E31A6B",
"y 	c #E01B70",
"z 	c #DA1D73",
"A 	c #D52076",
"B 	c #CD257E",
"C 	c #C72888",
"D 	c #C12B8C",
"E 	c #BA3090",
"F 	c #AF3594",
"G 	c #A53A98",
"H 	c #95439F",
"I 	c #7752AD",
"J 	c #6C57B0",
"K 	c #615DB3",
"L 	c #5662B6",
"M 	c #616F9E",
"N 	c #627C90",
"O 	c #5D818F",
"P 	c #59858E",
"Q 	c #56898C",
"R 	c #538D8B",
"S 	c #579480",
"T 	c #589979",
"U 	c #589B77",
"V 	c #569D76",
"W 	c #549F75",
"X 	c #52A175",
"Y 	c #5AA868",
"Z 	c #E31A69",
"` 	c #E21A6D",
" .	c #DE1C70",
"..	c #D81F73",
"+.	c #D22176",
"@.	c #CB267F",
"#.	c #C42989",
"$.	c #BD2F8E",
"%.	c #B23391",
"&.	c #A83896",
"*.	c #9C3E9A",
"=.	c #7D4FAB",
"-.	c #7055AF",
";.	c #645BB2",
">.	c #5B60B6",
",.	c #67798F",
"'.	c #647F8B",
").	c #60828A",
"!.	c #5B8789",
"~.	c #598B88",
"{.	c #5A947B",
"].	c #5C9A74",
"^.	c #5B9C73",
"/.	c #5A9E71",
"(.	c #579F72",
"_.	c #56A070",
":.	c #55A370",
"<.	c #5BAA65",
"[.	c #E41B67",
"}.	c #E31A6C",
"|.	c #E21B6E",
"1.	c #DC1D71",
"2.	c #D62174",
"3.	c #D12377",
"4.	c #C82881",
"5.	c #C02D8C",
"6.	c #B5328F",
"7.	c #AA3694",
"8.	c #A03C97",
"9.	c #844BA7",
"0.	c #7353AF",
"a.	c #6859B1",
"b.	c #635FAF",
"c.	c #6A7C88",
"d.	c #678187",
"e.	c #628485",
"f.	c #5F8984",
"g.	c #609378",
"h.	c #619A6F",
"i.	c #5F9C6E",
"j.	c #5F9E6D",
"k.	c #5C9F6D",
"l.	c #5BA26C",
"m.	c #59A36B",
"n.	c #59A46A",
"o.	c #60AB60",
"p.	c #E31A68",
"q.	c #E41B63",
"r.	c #E31B66",
"s.	c #E31B67",
"t.	c #E21B69",
"u.	c #DF1C6C",
"v.	c #D91F6F",
"w.	c #D32272",
"x.	c #CE2574",
"y.	c #C52A81",
"z.	c #B8308D",
"A.	c #AE3491",
"B.	c #A43B94",
"C.	c #8E46A1",
"D.	c #7752AE",
"E.	c #6B58B0",
"F.	c #6B63A2",
"G.	c #6D7E83",
"H.	c #698381",
"I.	c #668782",
"J.	c #80A68D",
"K.	c #689B6C",
"L.	c #649D6A",
"M.	c #629E69",
"N.	c #61A067",
"O.	c #5FA267",
"P.	c #5EA467",
"Q.	c #5DA666",
"R.	c #5CA765",
"S.	c #64AC58",
"T.	c #E51D65",
"U.	c #E41C62",
"V.	c #E31B63",
"W.	c #E31C66",
"X.	c #E21C68",
"Y.	c #DC1E6B",
"Z.	c #D7216D",
"`.	c #D12370",
" +	c #CC2674",
".+	c #BF2D83",
"++	c #B1338F",
"@+	c #A63992",
"#+	c #98419B",
"$+	c #7B50AD",
"%+	c #6F56B0",
"&+	c #717090",
"*+	c #70807E",
"=+	c #8DA09A",
"-+	c #DDE5E0",
";+	c #F6F7F7",
">+	c #6B9468",
",+	c #679D65",
"'+	c #65A063",
")+	c #64A263",
"!+	c #62A462",
"~+	c #62A660",
"{+	c #60A760",
"]+	c #60A85F",
"^+	c #68B153",
"/+	c #E41B56",
"(+	c #E51B54",
"_+	c #E41C59",
":+	c #E31D5F",
"<+	c #E31B61",
"[+	c #E21C63",
"}+	c #DF1D65",
"|+	c #DA2068",
"1+	c #D4226C",
"2+	c #CF256E",
"3+	c #CA2872",
"4+	c #BA3083",
"5+	c #AA3890",
"6+	c #9F3E95",
"7+	c #804DAA",
"8+	c #7354AE",
"9+	c #777E7C",
"0+	c #ACB5B1",
"a+	c #F5F6F6",
"b+	c #F7F8F8",
"c+	c #C2D0BF",
"d+	c #598650",
"e+	c #5E8F55",
"f+	c #69A25F",
"g+	c #67A55D",
"h+	c #65A85D",
"i+	c #65AA5A",
"j+	c #67AF53",
"k+	c #6AB24D",
"l+	c #71B743",
"m+	c #E61A53",
"n+	c #E51B4E",
"o+	c #E51B4F",
"p+	c #E51A50",
"q+	c #E51B52",
"r+	c #E41C55",
"s+	c #E41D5B",
"t+	c #DD1F63",
"u+	c #D82266",
"v+	c #D2246A",
"w+	c #CC276D",
"x+	c #C72A70",
"y+	c #B53283",
"z+	c #A23C92",
"A+	c #8948A4",
"B+	c #7C59A9",
"C+	c #C9CDCA",
"D+	c #EDEFEB",
"E+	c #709260",
"F+	c #5D884C",
"G+	c #5D8C4D",
"H+	c #62994B",
"I+	c #6FAF4B",
"J+	c #71B545",
"K+	c #72B93F",
"L+	c #73BA3F",
"M+	c #73B93E",
"N+	c #78BB3A",
"O+	c #E61C51",
"P+	c #E51C4D",
"Q+	c #E51A4F",
"R+	c #E51A4E",
"S+	c #E41A4D",
"T+	c #E21C50",
"U+	c #DB215A",
"V+	c #D22664",
"W+	c #CA286A",
"X+	c #C52B6D",
"Y+	c #AE3684",
"Z+	c #95479F",
"`+	c #D5CEDD",
" @	c #F6F8F7",
".@	c #8FAA7D",
"+@	c #618F3F",
"@@	c #649737",
"#@	c #669E32",
"$@	c #67A230",
"%@	c #6CAA32",
"&@	c #77BA37",
"*@	c #78BB37",
"=@	c #79BB37",
"-@	c #78BC37",
";@	c #7DBB31",
">@	c #E61C50",
",@	c #E51D4B",
"'@	c #E51C4B",
")@	c #E51C4C",
"!@	c #E51B4C",
"~@	c #E51B4A",
"{@	c #E51A49",
"]@	c #E61B47",
"^@	c #E61C47",
"/@	c #E61B44",
"(@	c #E61B43",
"_@	c #E11C48",
":@	c #D92353",
"<@	c #CC2861",
"[@	c #D7B2CD",
"}@	c #A7C389",
"|@	c #679E29",
"1@	c #699F29",
"2@	c #6AA22A",
"3@	c #6CA42A",
"4@	c #6DA52B",
"5@	c #6EA82B",
"6@	c #73AF2C",
"7@	c #7EBD30",
"8@	c #7EBE30",
"9@	c #7FBE31",
"0@	c #80BD2E",
"a@	c #E61D4E",
"b@	c #E51E49",
"c@	c #E51E47",
"d@	c #E51D46",
"e@	c #E61E45",
"f@	c #E61D42",
"g@	c #E61C40",
"h@	c #E61C3F",
"i@	c #E61D3D",
"j@	c #E61C3B",
"k@	c #E62339",
"l@	c #E06A6C",
"m@	c #F4F1F0",
"n@	c #B9CE96",
"o@	c #6B9F24",
"p@	c #6EA023",
"q@	c #6EA224",
"r@	c #70A324",
"s@	c #72A624",
"t@	c #73A724",
"u@	c #74A924",
"v@	c #76AC25",
"w@	c #7BB226",
"x@	c #82BD2A",
"y@	c #83BE2B",
"z@	c #86BD28",
"A@	c #E61E4D",
"B@	c #E61F45",
"C@	c #E61F43",
"D@	c #E61F42",
"E@	c #E61F41",
"F@	c #E61F3F",
"G@	c #E61E3E",
"H@	c #E61E3C",
"I@	c #E71F39",
"J@	c #E82937",
"K@	c #E93632",
"L@	c #E9492B",
"M@	c #E95128",
"N@	c #E95F23",
"O@	c #CEA035",
"P@	c #F2F2E6",
"Q@	c #C9CD83",
"R@	c #92A314",
"S@	c #90A315",
"T@	c #88A318",
"U@	c #7FA31C",
"V@	c #78A71E",
"W@	c #77A91F",
"X@	c #79AB1F",
"Y@	c #7AAD1F",
"Z@	c #7BAE20",
"`@	c #7CAF22",
" #	c #81B524",
".#	c #88BF27",
"+#	c #8ABE25",
"@#	c #E61E46",
"##	c #E62040",
"$#	c #E6203E",
"%#	c #E6213D",
"&#	c #E6213B",
"*#	c #E72439",
"=#	c #E92F36",
"-#	c #EB3B30",
";#	c #EB492C",
">#	c #EA4C2A",
",#	c #EA4E27",
"'#	c #F0A38C",
")#	c #F6EEEA",
"!#	c #F1DAC4",
"~#	c #E7BC0D",
"{#	c #CCBA21",
"]#	c #B1A707",
"^#	c #A0A60D",
"/#	c #97A612",
"(#	c #97A813",
"_#	c #98AA13",
":#	c #98AC14",
"<#	c #93AB16",
"[#	c #8CAD18",
"}#	c #85AD1B",
"|#	c #81B11C",
"1#	c #81B11D",
"2#	c #83B31F",
"3#	c #87B821",
"4#	c #8FC021",
"5#	c #E82143",
"6#	c #E7243B",
"7#	c #E82B39",
"8#	c #EA3135",
"9#	c #EC3D31",
"0#	c #ED422E",
"a#	c #EC452B",
"b#	c #EB492A",
"c#	c #EB4C28",
"d#	c #EA4E25",
"e#	c #EC734F",
"f#	c #D2BD3D",
"g#	c #E5C801",
"h#	c #BEB106",
"i#	c #B4A906",
"j#	c #A4A90C",
"k#	c #9BAB0F",
"l#	c #9CAC10",
"m#	c #9BAE11",
"n#	c #9DB011",
"o#	c #9DB212",
"p#	c #9DB313",
"q#	c #9CB614",
"r#	c #95B418",
"s#	c #8FB41A",
"t#	c #8BB71C",
"u#	c #8EBB1C",
"v#	c #E9333B",
"w#	c #EC3B33",
"x#	c #EC3E2F",
"y#	c #EC462A",
"z#	c #EC4928",
"A#	c #EB4B27",
"B#	c #EA5122",
"C#	c #EE8E63",
"D#	c #F4F3EF",
"E#	c #C6AA10",
"F#	c #CAAE00",
"G#	c #D7C605",
"H#	c #C0B606",
"I#	c #B6AD06",
"J#	c #A6AE0B",
"K#	c #9FAF0D",
"L#	c #A0B10E",
"M#	c #A1B20F",
"N#	c #A1B40F",
"O#	c #A2B610",
"P#	c #A0B711",
"Q#	c #A1BA12",
"R#	c #A1BB14",
"S#	c #A0BC14",
"T#	c #A5BF16",
"U#	c #EC3637",
"V#	c #EC3D30",
"W#	c #ED3F2D",
"X#	c #ED422B",
"Y#	c #ED4429",
"Z#	c #EC4726",
"`#	c #EB4A25",
" $	c #EB4E23",
".$	c #EA5120",
"+$	c #E96A32",
"@$	c #F0E2D6",
"#$	c #F5F3F0",
"$$	c #D3B464",
"%$	c #C5A501",
"&$	c #C4AA00",
"*$	c #C5B003",
"=$	c #D4C705",
"-$	c #C3B805",
";$	c #B9B106",
">$	c #AAB00A",
",$	c #A4B20C",
"'$	c #A5B40C",
")$	c #A6B50D",
"!$	c #A6B70E",
"~$	c #A6B90E",
"{$	c #A6BB0F",
"]$	c #A6BD10",
"^$	c #A6BE10",
"/$	c #AAC013",
"($	c #EC3633",
"_$	c #ED3F2C",
":$	c #ED4229",
"<$	c #ED4427",
"[$	c #EC4724",
"}$	c #EC4A23",
"|$	c #EB4E21",
"1$	c #EA511F",
"2$	c #EB591B",
"3$	c #DB8544",
"4$	c #D1925E",
"5$	c #CF9258",
"6$	c #C57627",
"7$	c #BF9602",
"8$	c #C7A401",
"9$	c #C7A901",
"0$	c #C4AD01",
"a$	c #BFB304",
"b$	c #D5C805",
"c$	c #C3B905",
"d$	c #BBB506",
"e$	c #AFB507",
"f$	c #A8B609",
"g$	c #A9B80A",
"h$	c #A9BA0A",
"i$	c #AABB0B",
"j$	c #A9BD0C",
"k$	c #A9BF0C",
"l$	c #AAC10E",
"m$	c #ADC30E",
"n$	c #EC3A2D",
"o$	c #ED4227",
"p$	c #ED4425",
"q$	c #EC4723",
"r$	c #EC4B21",
"s$	c #EB4D1E",
"t$	c #EB501D",
"u$	c #EB581B",
"v$	c #EE7115",
"w$	c #EC7514",
"x$	c #CE6A10",
"y$	c #BF650F",
"z$	c #C1690E",
"A$	c #C59C02",
"B$	c #C8A301",
"C$	c #C9A901",
"D$	c #C8AE00",
"E$	c #BEB003",
"F$	c #C2B604",
"G$	c #D4C805",
"H$	c #C5BC05",
"I$	c #BDB805",
"J$	c #B0B807",
"K$	c #ACB909",
"L$	c #AEBC0A",
"M$	c #AEBD0A",
"N$	c #AEC00A",
"O$	c #AEC00C",
"P$	c #ADC20D",
"Q$	c #B3C30D",
"R$	c #EC3A2A",
"S$	c #ED4424",
"T$	c #ED4722",
"U$	c #EC4A1F",
"V$	c #EC4D1D",
"W$	c #EB501C",
"X$	c #EC581A",
"Y$	c #EF6D15",
"Z$	c #ED7314",
"`$	c #ED7713",
" %	c #EB7A12",
".%	c #D06F0F",
"+%	c #C0770A",
"@%	c #C99D02",
"#%	c #CAA301",
"$%	c #CAA801",
"%%	c #CCAE01",
"&%	c #C3B202",
"*%	c #C1B303",
"=%	c #C5B903",
"-%	c #D2C904",
";%	c #C7BE05",
">%	c #C1BA05",
",%	c #B4BC07",
"'%	c #B0BC09",
")%	c #B1BF09",
"!%	c #B2C00B",
"~%	c #B2C30B",
"{%	c #B2C30C",
"]%	c #B5C40A",
"^%	c #EC3B24",
"/%	c #ED4520",
"(%	c #EC491F",
"_%	c #EC4C1C",
":%	c #ED561A",
"<%	c #EF6A15",
"[%	c #EF7113",
"}%	c #ED7413",
"|%	c #ED7712",
"1%	c #EC7B11",
"2%	c #EA7E10",
"3%	c #D29206",
"4%	c #CA9C02",
"5%	c #CCA202",
"6%	c #CCA701",
"7%	c #CCAC01",
"8%	c #C8B301",
"9%	c #C4B602",
"0%	c #C3B603",
"a%	c #C6BB03",
"b%	c #C8C105",
"c%	c #C3BE05",
"d%	c #B7BF07",
"e%	c #B4C008",
"f%	c #B5C209",
"g%	c #B6C309",
"h%	c #B6C60A",
"i%	c #B8C70A",
"j%	c #F15C45",
"k%	c #F16F4E",
"l%	c #F0724C",
"m%	c #EF754B",
"n%	c #EF7A4B",
"o%	c #F28948",
"p%	c #F28E47",
"q%	c #F29045",
"r%	c #F29345",
"s%	c #F19645",
"t%	c #EF9844",
"u%	c #EF9B43",
"v%	c #F4C23F",
"w%	c #DEB634",
"x%	c #D9B533",
"y%	c #AF910E",
"z%	c #AE940E",
"A%	c #AD990E",
"B%	c #A89C0F",
"C%	c #A69D0F",
"D%	c #A79E0F",
"E%	c #A8A10F",
"F%	c #ADA710",
"G%	c #A6A310",
"H%	c #A4A211",
"I%	c #9CA213",
"J%	c #99A314",
"K%	c #9BA415",
"L%	c #9AA615",
"M%	c #A2AF10",
"N%	c #F7A394",
"O%	c #FBD8CE",
"P%	c #FBD9CE",
"Q%	c #FBDACD",
"R%	c #FCDECD",
"S%	c #FCE0CC",
"T%	c #FCE1CC",
"U%	c #FBE2CC",
"V%	c #FBE2CB",
"W%	c #FBE3CB",
"X%	c #FAE4CB",
"Y%	c #FCEECA",
"Z%	c #FCEFC9",
"`%	c #FCF0C8",
" &	c #4B4932",
".&	c #4B4A32",
"+&	c #494A32",
"@&	c #494B32",
"#&	c #484B32",
"$&	c #474B32",
"%&	c #474B33",
"&&	c #494E36",
"*&	c #5B604C",
"=&	c #454A33",
"-&	c #6F7624",
";&	c #F7A593",
">&	c #EECFC4",
",&	c #6C6664",
"'&	c #C9B3A8",
")&	c #FCDFCC",
"!&	c #FCE1CB",
"~&	c #FBE9CD",
"{&	c #FCEDC9",
"]&	c #FCEEC9",
"^&	c #4B4832",
"/&	c #4A4A32",
"(&	c #AEB0A6",
"_&	c #7C7F6F",
":&	c #707623",
"<&	c #F7A693",
"[&	c #F1D1C6",
"}&	c #8C817B",
"|&	c #D4BDB0",
"1&	c #FBE1CB",
"2&	c #FCEDCE",
"3&	c #989B8E",
"4&	c #ECECEA",
"5&	c #6D715E",
"6&	c #717623",
"7&	c #F7A992",
"8&	c #FCDCCD",
"9&	c #FAE3CB",
"0&	c #FCEECD",
"a&	c #727723",
"                                                                ",
"                                                                ",
"                                                                ",
"  . + @ # $ % & * = - ; > , ' ) ! ~ { ] ^ / ( _ : < [ } | 1 2   ",
"  3 4 5 6 7 8 9 0 a b c d e f g h i j k l m n o p q r s t u v   ",
"  w x 4 y z A B C D E F G H I J K L M N O P Q R S T U V W X Y   ",
"  4 Z x `  ...+.@.#.$.%.&.*.=.-.;.>.,.'.).!.~.{.].^./.(._.:.<.  ",
"  x [.Z }.|.1.2.3.4.5.6.7.8.9.0.a.b.c.d.e.f.g.h.i.j.k.l.m.n.o.  ",
"  p.q.r.s.t.u.v.w.x.y.z.A.B.C.D.E.F.G.H.I.J.K.L.M.N.O.P.Q.R.S.  ",
"  T.U.q.V.W.X.Y.Z.`. +.+++@+#+$+%+&+*+=+-+;+>+,+'+)+!+~+{+]+^+  ",
"  /+(+_+:+<+[+}+|+1+2+3+4+5+6+7+8+9+0+a+b+c+d+e+f+g+h+i+j+k+l+  ",
"  m+n+o+p+q+r+s+t+u+v+w+x+y+z+A+B+C+b+b+D+E+F+G+H+I+J+K+L+M+N+  ",
"  O+P+P+n+o+Q+R+S+T+U+V+W+X+Y+Z+`+b+b+ @.@+@@@#@$@%@&@*@=@-@;@  ",
"  >@,@'@)@!@~@{@]@^@/@(@_@:@<@[@b+b+b+}@|@1@2@3@4@5@6@7@8@9@0@  ",
"  a@b@b@c@d@e@f@f@g@h@i@j@k@l@m@b+b+n@o@p@q@r@s@t@u@v@w@x@y@z@  ",
"  A@B@C@D@E@F@G@H@I@J@K@L@M@N@O@P@Q@R@S@T@U@V@W@X@Y@Z@`@ #.#+#  ",
"  @###$#%#&#*#=#-#;#>#,#'#)#!#~#{#]#^#/#(#_#:#<#[#}#|#1#2#3#4#  ",
"  5#6#7#8#9#0#a#b#c#d#e#b+b+b+f#g#h#i#j#k#l#m#n#o#p#q#r#s#t#u#  ",
"  v#w#9#x#0#y#z#A#d#B#C#b+b+D#E#F#G#H#I#J#K#L#M#N#O#P#Q#R#S#T#  ",
"  U#V#W#X#Y#Z#`# $.$+$@$b+#$$$%$&$*$=$-$;$>$,$'$)$!$~${$]$^$/$  ",
"  ($_$:$<$[$}$|$1$2$3$4$5$6$7$8$9$0$a$b$c$d$e$f$g$h$i$j$k$l$m$  ",
"  n$o$p$q$r$s$t$u$v$w$x$y$z$A$B$C$D$E$F$G$H$I$J$K$L$M$N$O$P$Q$  ",
"  R$S$T$U$V$W$X$Y$Z$`$ %.%+%@%#%$%%%&%*%=%-%;%>%,%'%)%!%~%{%]%  ",
"  ^%/%(%_%W$:%<%[%}%|%1%2%3%4%5%6%7%8%9%0%a%-%b%c%d%e%f%g%h%i%  ",
"  j%k%l%m%n%o%p%q%r%s%t%u%v%w%x%y%z%A%B%C%D%E%F%G%H%I%J%K%L%M%  ",
"  N%O%P%Q%R%S%S%T%U%V%W%X%Y%Z%`% & &.&+&@&@&#&#&#&$&%&&&*&=&-&  ",
"  ;&>&,&'&)&S%T%!&V%W%W%~&{&]&Z%^& &.&/&@&@&#&#&#&#&$&(&b+_&:&  ",
"  <&[&}&|&S%S%T%1&V%W%W%2&{&]&Z%^& & &/&@&@&@&#&#&#&$&3&4&5&6&  ",
"  7&8&R%)&S%T%!&V%V%W%9&0&{&]&]&^&^& &/&+&@&@&#&#&#&#&$&$&$&a&  ",
"                                                                ",
"                                                                ",
"                                                                "};
