/* XPM */
static char * windows_16x16_xpm[] = {
"16 16 2 1",
" 	c None",
".	c #E1E1E1",
"                ",
"                ",
" ........       ",
" ........       ",
" .      .       ",
" .  ........    ",
" .  ........    ",
" .  .      .    ",
" ....  ........ ",
"    .  ........ ",
"    .  .      . ",
"    ....      . ",
"       .      . ",
"       .      . ",
"       ........ ",
"                "};
