/* XPM */
static char * closeO_xpm[] = {
"30 52 67 1",
" 	c #2A2A2A",
".	c #934754",
"+	c #CE5768",
"@	c #EE6075",
"#	c #FA647A",
"$	c #ED6076",
"%	c #CE5868",
"&	c #924653",
"*	c #744048",
"=	c #E25D70",
"-	c #FF667C",
";	c #734049",
">	c #8D4651",
",	c #F86479",
"'	c #8C4451",
")	c #F76379",
"!	c #723F4A",
"~	c #E15D6F",
"{	c #F16175",
"]	c #5D3B43",
"^	c #E25C70",
"/	c #924753",
"(	c #CF5669",
"_	c #E35D71",
":	c #5F3C44",
"<	c #E05D70",
"[	c #E35E71",
"}	c #CD5767",
"|	c #F96479",
"1	c #ED6074",
"2	c #CD5668",
"3	c #914552",
"4	c #6E3E48",
"5	c #F66378",
"6	c #7F3A42",
"7	c #B23E4A",
"8	c #CB4250",
"9	c #D64352",
"0	c #B13F4B",
"a	c #7E3A42",
"b	c #64383F",
"c	c #C2404E",
"d	c #DA4453",
"e	c #C1414D",
"f	c #65383F",
"g	c #7A3A41",
"h	c #D44352",
"i	c #783942",
"j	c #D34352",
"k	c #64393F",
"l	c #C0414E",
"m	c #CE4250",
"n	c #53383E",
"o	c #C1414E",
"p	c #7D3A43",
"q	c #B0404B",
"r	c #C3414D",
"s	c #55383D",
"t	c #C1404E",
"u	c #C2414E",
"v	c #B03F4A",
"w	c #D54352",
"x	c #CA4250",
"y	c #AF3F4A",
"z	c #7C3B42",
"A	c #5F383F",
"B	c #D34350",
"                              ",
"                              ",
"                              ",
"                              ",
"                              ",
"           .+@##$%&           ",
"         *=--------=;         ",
"        >,----------,'        ",
"       *,------------)!       ",
"       ~---{------{---=       ",
"      .---{]^----^]{---/      ",
"      (----_:<--[:<----}      ",
"      @-----_:<[:<-----$      ",
"      #------^]]^------#      ",
"      #------^]]^------|      ",
"      @-----[:<_:<-----1      ",
"      +----[:<--_:<----2      ",
"      &---{]^----^]{---3      ",
"       <---{------{---=       ",
"       45------------)!       ",
"        ')----------)'        ",
"         ;^--------~!         ",
"           /}1##1}3           ",
"                              ",
"                              ",
"                              ",
"                              ",
"                              ",
"                              ",
"                              ",
"                              ",
"           6789980a           ",
"         bcddddddddef         ",
"        ghddddddddddhi        ",
"       bhddddddddddddjk       ",
"       ldddmddddddmdddc       ",
"      6dddmnoddddonmdddp      ",
"      qddddrstddustddddv      ",
"      8dddddrstustddddd8      ",
"      9ddddddonnodddddd9      ",
"      9ddddddonnoddddddw      ",
"      8dddddustrstdddddx      ",
"      7ddddustddrstddddy      ",
"      adddmnoddddonmdddz      ",
"       tdddmddddddmddde       ",
"       ABddddddddddddjk       ",
"        ijddddddddddji        ",
"         foddddddddlk         ",
"           pvx99xvz           ",
"                              ",
"                              ",
"                              "};
