<?xml version="1.0" encoding="UTF-8" standalone="no"?>
<svg
   viewBox="0 0 64 64"
   version="1.1"
   id="svg6"
   sodipodi:docname="folder-activities.svg"
   width="64"
   height="64"
   inkscape:version="1.2.1 (9c6d41e410, 2022-07-14, custom)"
   xmlns:inkscape="http://www.inkscape.org/namespaces/inkscape"
   xmlns:sodipodi="http://sodipodi.sourceforge.net/DTD/sodipodi-0.dtd"
   xmlns="http://www.w3.org/2000/svg"
   xmlns:svg="http://www.w3.org/2000/svg">
  <sodipodi:namedview
     id="namedview8"
     pagecolor="#ffffff"
     bordercolor="#000000"
     borderopacity="0.25"
     inkscape:showpageshadow="2"
     inkscape:pageopacity="0.0"
     inkscape:pagecheckerboard="0"
     inkscape:deskcolor="#d1d1d1"
     showgrid="false"
     inkscape:zoom="5.2149125"
     inkscape:cx="56.7603"
     inkscape:cy="25.407905"
     inkscape:window-width="1440"
     inkscape:window-height="829"
     inkscape:window-x="-4"
     inkscape:window-y="-4"
     inkscape:window-maximized="1"
     inkscape:current-layer="svg6" />
  <defs
     id="defs3051">
    <style
       type="text/css"
       id="current-color-scheme">
      .ColorScheme-Text {
        color:#eff0f1;
      }
      </style>
  </defs>
  <path
     style="fill:currentColor;stroke-width:4.32386"
     d="m 19.028419,6.0568373 a 4.3238604,4.3238604 0 0 0 -4.323861,4.3238607 4.3238604,4.3238604 0 0 0 4.323861,4.32386 4.3238604,4.3238604 0 0 0 4.32386,-4.32386 4.3238604,4.3238604 0 0 0 -4.32386,-4.3238607 z m 21.619302,0 L 34.16193,12.542628 44.971581,23.352279 34.16193,34.16193 40.647721,40.647721 57.943163,23.352279 Z M 11.461663,25.514209 a 5.4048256,5.4048256 0 0 0 -5.4048257,5.404826 5.4048256,5.4048256 0 0 0 5.4048257,5.404825 5.4048256,5.4048256 0 0 0 5.404825,-5.404825 5.4048256,5.4048256 0 0 0 -5.404825,-5.404826 z m 14.052546,19.457372 a 6.4857907,6.4857907 0 0 0 -6.48579,6.485791 6.4857907,6.4857907 0 0 0 6.48579,6.485791 A 6.4857907,6.4857907 0 0 0 32,51.457372 6.4857907,6.4857907 0 0 0 25.514209,44.971581 Z"
     class="ColorScheme-Text"
     id="path4" />
</svg>
